<svg xmlns="http://www.w3.org/2000/svg" xmlns:xlink="http://www.w3.org/1999/xlink" id="Capa_1" x="0px" y="0px" width="331px" height="462px" viewBox="0 0 331 462" xml:space="preserve"> <g> <ellipse opacity="0.3" cx="165.5" cy="434.3339844" rx="85.9130859" ry="21.5"></ellipse> <path fill="#E96506" d="M165.5087891,6.1665039c-86.5800781,0-156.8642578,70.2939453-156.8642578,156.8168945 c0,36.1518555,13.1503906,68.4794922,32.4951172,95.6337891l124.3691406,174.2167969L289.890625,258.5957031 c19.3320313-27.1445313,32.4648438-59.5541992,32.4648438-95.6123047 C322.359375,76.4604492,252.1728516,6.1665039,165.5087891,6.1665039 M165.5087891,260.9003906 c-54.0458984,0-97.9287109-43.7338867-97.9287109-97.9169922c0-54.0410156,43.8828125-97.8979492,97.9287109-97.8979492 c54.1269531,0,97.9150391,43.8569336,97.9150391,97.8979492 C263.4238281,217.1665039,219.6308594,260.9003906,165.5087891,260.9003906"></path> <path fill-rule="evenodd" clip-rule="evenodd" fill="#FFFFFF" d="M224.6318359,195.9379883 c3.7539063,0,6.8164063,3.0610352,6.8164063,6.8149414s-3.0625,6.8149414-6.8164063,6.8149414 s-6.8134766-3.0610352-6.8134766-6.8149414S220.8779297,195.9379883,224.6318359,195.9379883 M243.9589844,149.3867188 l1.0322266,2.1323242l0.828125,2.2080078l0.6123047,2.2797852l0.3730469,2.2680664l0.0517578,0.4907227l0.0361328,0.4169922 l0.0283203,0.4169922l0.0214844,0.4194336l0.0146484,0.4189453l0.0068359,0.4150391v0.4179688l-0.0068359,0.4169922 l-0.015625,0.4169922l-0.0224609,0.4150391l-0.0283203,0.4150391l-0.0361328,0.4145508l-0.0439453,0.4140625l-0.0498047,0.4130859 l-0.0576172,0.4111328l-0.0644531,0.4130859l-0.0712891,0.4106445l-0.0771484,0.4101563l-0.0839844,0.4082031l-0.0917969,0.4086914 l-0.0976563,0.40625l-0.1035156,0.4047852l-0.1113281,0.4052734l-0.1162109,0.4018555l-0.1259766,0.4038086l-0.1279297,0.4003906 l-0.1357422,0.3999023l-0.1425781,0.3979492l-0.1494141,0.3989258l-0.1533203,0.394043l-0.09375,0.2280273l-0.0048828,0.0708008 l-0.0361328,0.4492188l-0.0341797,0.4521484l-0.0332031,0.4516602l-0.0351563,0.4482422l-0.0341797,0.4467773l-0.0361328,0.4599609 l-0.0234375,0.2890625l-0.0224609,0.2841797l-0.0253906,0.2880859l-0.0273438,0.2988281l-0.0273438,0.2900391l-0.0283203,0.2890625 l-0.0302734,0.2988281L244.5263672,176l-0.0341797,0.2949219l-0.0332031,0.2900391l-0.0361328,0.2958984l-0.0371094,0.2998047 l-0.0400391,0.3051758l-0.0410156,0.2988281l-0.0429688,0.2949219l-0.0517578,0.3632813l-0.1523438,0.894043l-0.1835938,0.9077148 l-0.2148438,0.8862305l-0.2412109,0.8647461l-0.2734375,0.8461914l-0.3007813,0.8251953l-0.3330078,0.7998047l-0.359375,0.7797852 l-0.3935547,0.7573242l-0.4199219,0.7319336l-0.4511719,0.7050781l-0.4785156,0.6777344l-0.5097656,0.6494141l-0.5332031,0.6176758 l-0.5595703,0.5859375l-0.5830078,0.5522461l-0.6025391,0.5170898l-0.6230469,0.480957l-0.6376953,0.4448242l-0.6494141,0.4047852 l-0.6640625,0.3710938l-0.6738281,0.3330078l-0.6777344,0.2973633l-0.6806641,0.2597656l-0.6787109,0.222168l-0.6816406,0.1918945 l-0.6777344,0.1557617l-0.671875,0.1259766l-0.6708984,0.097168l-0.6650391,0.0668945l-0.6542969,0.0380859l-6.9277344,0.1342773 l-0.4472656,0.2597656l-1.2871094,0.7167969l-1.3095703,0.7050781l-1.3320313,0.6918945l-1.3574219,0.6782227l-1.3798828,0.6650391 l-1.4023438,0.6499023l-1.4257813,0.6362305l-1.4472656,0.6220703l-1.4677734,0.6079102l-1.4902344,0.5927734l-1.5107422,0.578125 l-1.53125,0.5629883l-1.5507813,0.546875l-1.5673828,0.5302734l-1.5908203,0.5146484l-1.6074219,0.4990234l-1.6259766,0.4819336 l-1.6435547,0.465332L192.75,206.1186523l-1.6777344,0.4301758l-1.6953125,0.4130859l-1.7119141,0.3950195l-1.7255859,0.3759766 l-1.7421875,0.3579102l-1.7578125,0.3388672L180.6689453,208.75l-1.7851563,0.3017578l-1.7988281,0.2802734l-1.8134766,0.2617188 l-1.8261719,0.2402344l-1.8486328,0.2216797l-4.0136719,0.4052734l-3.9873047,0.2978516l-3.9453125,0.1899414l-3.8964844,0.0859375 l-3.8408203-0.0166016l-3.7841797-0.1171875l-3.7197266-0.2182617l-3.6523438-0.3139648l-3.5791016-0.4086914l-3.5-0.5043945 l-3.4189453-0.5957031l-3.3310547-0.6860352l-3.2382813-0.7768555l-3.1416016-0.8642578l-3.0400391-0.9506836l-2.9326172-1.0371094 l-2.8232422-1.1201172l-2.7060547-1.2060547l-2.5859375-1.2890625L104,199.5585938l-2.3300781-1.4555664l-2.1933594-1.5390625 l-2.0507813-1.6210938l-1.9023438-1.7070313l-1.7480469-1.7939453l-1.5839844-1.8789063l-1.4091797-1.9663086l-1.2275391-2.0478516 l-1.0332031-2.1318359l-0.828125-2.2080078l-0.6103516-2.2792969l-0.3759766-2.2797852l-0.0732422-0.7363281l-0.0478516-0.6728516 l-0.0273438-0.6738281l-0.0107422-0.675293l0.0107422-0.671875l0.0273438-0.671875l0.0458984-0.6689453l0.0654297-0.6699219 l0.0839844-0.6669922l0.1005859-0.6640625l0.1191406-0.6630859l0.1376953-0.6601563l0.1533203-0.6567383l0.1708984-0.6552734 l0.1875-0.6489258l0.2050781-0.6489258l0.2226563-0.6479492l0.2363281-0.6411133l0.2539063-0.6367188l0.2675781-0.6352539 l0.2851563-0.6308594L89.4199219,162.125l0.3144531-0.6240234l0.328125-0.6201172l0.3457031-0.6181641l0.3574219-0.6108398 l0.3730469-0.6088867l0.3847656-0.6049805l0.0703125-0.1049805h-5.5576172l4.9501953-12.4482422l0.2792969-0.6210938 l0.4609375-0.7998047l0.5205078-0.7021484l0.5380859-0.6098633l0.6357422-0.5898438l0.6376953-0.4863281l0.6347656-0.4067383 l0.6435547-0.3432617l0.3642578-0.1630859l0.3056641-0.1298828l0.3408203-0.1269531l0.3457031-0.1191406l0.3095703-0.0908203 l0.3330078-0.0908203l0.3027344-0.0683594l0.3125-0.0688477l0.3388672-0.0561523l0.2724609-0.0419922l0.3134766-0.0375977 l0.3115234-0.0332031l0.3095703-0.0200195l0.2939453-0.0170898l0.3105469-0.0078125l0.2949219-0.0019531l0.3193359,0.0048828 l0.3486328,0.0112305l0.3769531,0.0239258l0.3486328,0.0317383l0.3583984,0.0419922l0.3632813,0.0551758l0.3574219,0.0620117 l0.3496094,0.0717773l0.3457031,0.0810547l0.3808594,0.1020508l0.3789063,0.1162109l0.3066406,0.1030273l0.3535156,0.1279297 l0.4042969,0.1669922l0.0732422,0.0327148l0.1923828-0.0698242l0.3398438-0.1181641l0.3759766-0.1206055l0.3603516-0.1054688 l0.3222656-0.0859375l0.3828125-0.0947266l0.375-0.0791016l0.3339844-0.0668945l0.3632813-0.0639648l0.3681641-0.0551758 l0.3779297-0.0488281l0.3574219-0.0371094l0.3505859-0.0322266l0.3710938-0.0258789l0.375-0.0170898l0.3623047-0.0097656 l0.3652344-0.0019531l0.0488281,0.0009766L111.5507813,140.25l0.3378906,0.0068359l0.25,0.0068359l0.2929688-0.1708984 l1.2871094-0.7197266l1.3115234-0.7094727l1.3349609-0.6948242l1.359375-0.6831055l1.3828125-0.6669922l1.40625-0.6547852 l1.4277344-0.6401367l1.4511719-0.6259766l1.4726563-0.6108398l1.4921875-0.5961914l1.5146484-0.5820313l1.5361328-0.5649414 l1.5537109-0.5507813l1.5751953-0.5322266l1.5927734-0.5200195l1.6132813-0.5l1.6308594-0.4848633l1.6494141-0.4682617 l1.6660156-0.4506836l1.6835938-0.4321289l1.7001953-0.4150391l1.7167969-0.3979492l1.7314453-0.3779297l1.75-0.3598633 l1.7626953-0.3413086l1.7783203-0.3208008l1.7910156-0.3032227l1.8066406-0.2817383l1.8183594-0.2631836l1.8320313-0.2416992 l1.8564453-0.2231445l4.0136719-0.4042969l3.9882813-0.296875l3.9433594-0.190918l3.8964844-0.0859375l3.8417969,0.0170898 l3.7841797,0.1166992l3.7207031,0.2182617l3.6513672,0.3129883l3.5791016,0.4101563l3.5009766,0.5039063l3.4179688,0.5957031 l3.3300781,0.6870117l3.2392578,0.7749023l3.1425781,0.8652344l3.0380859,0.9511719l2.9345703,1.0356445l2.8222656,1.1220703 l2.7060547,1.2050781l2.5859375,1.2880859l2.4609375,1.3720703l2.328125,1.4560547l2.1943359,1.5375977l2.0498047,1.6220703 l1.9023438,1.7080078l1.75,1.7929688l1.5820313,1.8793945l1.4101563,1.9638672L243.9589844,149.3867188z"></path> <path fill-rule="evenodd" clip-rule="evenodd" fill="#057332" d="M243.2607422,158.3330078 c0.0175781,0.1381836,0.0410156,0.2739258,0.0546875,0.4121094c0.3974609,3.4760742-0.1191406,6.9501953-1.4335938,10.3520508 l-0.0195313,0.2407227l-0.0351563,0.4560547l-0.0351563,0.4550781l-0.0341797,0.4541016l-0.0351563,0.4521484l-0.0341797,0.4506836 l-0.0556641,0.7202148l-0.0488281,0.6269531l-0.0351563,0.453125l-0.0214844,0.2768555l-0.0234375,0.2788086l-0.0253906,0.2802734 l-0.0244141,0.2788086l-0.0273438,0.28125l-0.0263672,0.2797852l-0.0283203,0.2802734l-0.0302734,0.2817383l-0.0322266,0.2822266 l-0.0332031,0.2817383l-0.0332031,0.2832031l-0.0361328,0.284668l-0.0371094,0.2832031l-0.0380859,0.2822266l-0.0410156,0.284668 l-0.0458984,0.3193359l-0.1367188,0.8037109l-0.1640625,0.7993164l-0.1855469,0.7729492l-0.2119141,0.7509766l-0.2324219,0.7290039 l-0.2568359,0.7006836l-0.28125,0.6791992l-0.3037109,0.6547852l-0.3251953,0.6303711l-0.3496094,0.605957l-0.3701172,0.5795898 l-0.3916016,0.5532227l-0.4111328,0.5258789l-0.4326172,0.4990234l-0.4492188,0.472168l-0.4648438,0.440918l-0.4824219,0.4121094 l-0.4960938,0.3837891l-0.5058594,0.3530273l-0.5166016,0.3222656l-0.5263672,0.2929688l-0.53125,0.2636719l-0.5361328,0.2353516 l-0.5400391,0.2050781l-0.5400391,0.1777344l-0.5419922,0.1518555l-0.5439453,0.125l-0.5361328,0.1010742l-0.5351563,0.0761719 l-0.5332031,0.0537109l-0.5253906,0.03125l-8.3378906,0.1640625c-12.7226563,7.3828125-29.6953125,12.9077148-48.6396484,15.065918 c-42.1669922,4.8051758-78.5595703-8.8369141-81.0126953-30.3671875 c-0.6796875-5.9667969,1.3183594-11.9306641,5.4580078-17.5356445l0.2685547-3.5253906h-5.1660156l3.1777344-7.9936523 l0.1865234-0.4111328l0.2900391-0.5029297l0.3271484-0.4418945l0.3417969-0.3891602l0.4052734-0.3740234l0.4082031-0.3120117 l0.4199219-0.269043l0.4345703-0.230957l0.2363281-0.105957l0.2089844-0.0888672l0.2333984-0.0869141l0.2373047-0.0820313 l0.2177734-0.0644531l0.2304688-0.0625l0.2177734-0.0493164l0.2216797-0.0478516l0.2441406-0.0410156l0.2050781-0.0322266 l0.2304688-0.027832l0.2324219-0.0239258l0.2285156-0.0161133l0.2285156-0.0131836l0.2382813-0.0058594l0.2265625-0.0009766 l0.2519531,0.0029297l0.2666016,0.0092773l0.2861328,0.0180664l0.2675781,0.0249023l0.2675781,0.0317383l0.2714844,0.0400391 l0.2675781,0.0458984l0.2626953,0.0551758l0.2597656,0.0610352l0.2744141,0.0727539l0.2773438,0.0839844l0.2324219,0.0791016 l0.2578125,0.0932617l0.2871094,0.1176758l0.234375,0.1064453l0.2148438,0.1025391l0.2294922,0.1171875l0.2480469,0.1352539 l0.2333984,0.1386719l0.0625,0.0400391l0.0634766-0.0327148l0.2568359-0.125l0.2675781-0.1220703l0.2802734-0.1201172 l0.2744141-0.1069336l0.2539063-0.0952148l0.2753906-0.0947266l0.2910156-0.0952148l0.2871094-0.0820313l0.265625-0.0708008 l0.2998047-0.0751953l0.2988281-0.0629883l0.2763672-0.0561523l0.2929688-0.0498047l0.2978516-0.0458984l0.3046875-0.0400391 l0.2978516-0.0302734l0.2871094-0.0249023l0.3046875-0.0219727l0.3105469-0.0136719l0.3017578-0.0083008l0.2958984-0.0019531 l0.0664063,0.0009766l0.0683594-0.0009766l0.25,0.0029297l0.2832031,0.0092773l0.1542969,0.0107422l0.0839844,0.0048828 l0.2148438,0.0151367l0.2402344,0.0200195l0.2460938,0.0268555l0.2011719,0.0263672l0.2177734,0.0307617l0.2431641,0.0400391 l0.1992188,0.0380859l0.2148438,0.0419922l0.2304688,0.0517578l0.2060547,0.0512695l0.2216797,0.059082l0.2128906,0.0620117 l0.2109375,0.065918l0.2207031,0.0737305l0.2080078,0.0771484l0.1923828,0.0742188l0.2109375,0.0878906l0.2275391,0.1020508 l0.203125,0.0966797l0.1826172,0.0913086l0.1513672,0.0820313l0.046875-0.0229492l0.2666016-0.1230469l0.2783203-0.1191406 l0.2744141-0.1069336l0.2587891-0.0961914l0.2763672-0.0966797l0.2949219-0.0932617l0.28125-0.0820313l0.265625-0.0708008 l0.2998047-0.0751953l0.2978516-0.0629883l0.2802734-0.0561523l0.2900391-0.0498047l0.2978516-0.0458984l0.3076172-0.0400391 l0.2929688-0.0302734l0.2910156-0.0249023l0.3027344-0.0219727l0.3115234-0.0136719l0.3017578-0.0083008l0.2929688-0.0019531 l0.2207031,0.0009766l0.2382813,0.0029297l0.2441406,0.012207l0.2128906,0.0117188l0.2070313,0.0151367l0.2382813,0.0200195 l0.25,0.0268555l0.1992188,0.0263672l0.2158203,0.0297852l0.2421875,0.0410156l0.2021484,0.0380859l0.2207031,0.0429688 l0.2265625,0.0507813l0.203125,0.0512695l0.2226563,0.059082l0.2089844,0.0610352l0.2177734,0.0668945l0.2167969,0.0761719 l0.2099609,0.0756836l0.1923828,0.0732422l0.2109375,0.0878906l0.2333984,0.1040039l0.1894531,0.0908203l0.1835938,0.0922852 l0.2070313,0.1108398l0.1962891,0.1108398l0.1865234,0.1123047l0.1972656,0.1230469l0.1904297,0.1298828l0.1767578,0.1240234 l0.1835938,0.1337891l0.1933594,0.1542969l0.3242188,0.2739258l0.3203125,0.3007813l0.3261719,0.3320313l0.2988281,0.3540039 l0.2646484,0.3398438l0.2617188,0.3793945l0.2373047,0.3886719l0.2167969,0.3989258l0.1894531,0.4072266l0.1728516,0.4150391 l0.1513672,0.434082l0.1230469,0.4208984l0.1064453,0.4311523l0.0859375,0.4458008l0.0654297,0.4472656l0.0429688,0.4169922 l0.0126953,0.1518555l0.0107422,0.1689453l0.0058594,0.1411133l0.0039063,0.1279297l0.0019531,0.1489258l0.0019531,0.1269531 l-0.0019531,0.1201172l-0.0019531,0.1567383l-0.0087891,0.1679688l-0.0039063,0.0874023l-0.0039063,0.0888672l-0.0087891,0.1499023 l-0.0097656,0.1230469l-0.0058594,0.0898438l-0.0097656,0.1069336l-0.0068359,0.0742188l-0.2099609,2.8320313l0.1679688-0.1308594 l0.3369141-0.2451172l0.3505859-0.2402344l0.3525391-0.2260742l0.3525391-0.2128906l0.1953125-0.1108398l0.1777344-0.0961914 l0.1806641-0.0966797l0.2001953-0.1020508l0.1806641-0.0878906l0.1728516-0.0839844l0.2041016-0.0922852l0.1982422-0.0859375 l0.1894531-0.0791016l0.1884766-0.074707l0.1806641-0.0683594l0.1894531-0.0698242l0.2070313-0.0717773l0.1953125-0.0620117 l0.2089844-0.0654297l0.1982422-0.0556641L137.1054688,154.25l0.2070313-0.0507813l0.1904297-0.0449219l0.2138672-0.0473633 l0.203125-0.0390625l0.1992188-0.0366211l0.2119141-0.0341797l0.2041016-0.0288086l0.1933594-0.0253906l0.2109375-0.0249023 l0.2109375-0.019043l0.2128906-0.015625l0.1914063-0.0102539l0.2011719-0.0107422l0.2148438-0.0053711l0.2109375-0.0019531 l0.2558594,0.0029297l0.2421875,0.0063477l0.2441406,0.0117188l0.2373047,0.0161133l0.2480469,0.0200195l0.2480469,0.027832 l0.2373047,0.03125l0.2304688,0.0351563l0.2324219,0.0395508l0.2519531,0.0512695l0.2421875,0.0546875l0.2324219,0.059082 l0.234375,0.065918l0.2226563,0.0703125l0.2412109,0.0810547l0.2138672,0.0810547l0.2285156,0.0908203l0.2285156,0.1010742 l0.0644531-0.0268555l0.1640625-0.0571289l0.2167969-0.0751953l0.2382813-0.0610352l0.1894531-0.0458984l0.2246094-0.0429688 l0.2011719-0.0332031l0.1572266-0.0185547l0.1826172-0.0224609l0.2333984-0.0175781l0.1767578-0.0083008l0.1816406-0.0058594 l0.171875-0.0019531h5.2871094l0.1230469-0.0458984l0.2265625-0.0751953l0.2285156-0.0717773l0.2314453-0.0600586 l0.2255859-0.0541992l0.2255859-0.0449219l0.2148438-0.0380859l0.2255859-0.0327148l0.2294922-0.0302734l0.2412109-0.0229492 l0.2216797-0.0161133l0.2216797-0.0117188l0.2275391-0.0073242l0.2216797-0.0019531l0.2695313,0.0019531l0.2832031,0.0131836 l0.2666016,0.0161133l0.2763672,0.0239258l0.2636719,0.0336914l0.2617188,0.0361328l0.2734375,0.0493164l0.2753906,0.0566406 l0.2675781,0.0639648l0.2587891,0.0703125l0.2509766,0.0756836l0.2597656,0.0864258l0.2695313,0.0996094l0.2558594,0.1040039 l0.2441406,0.1103516l0.2197266,0.1049805l0.2333984,0.1176758l0.2431641,0.1352539l0.234375,0.1357422l0.0634766,0.0400391 l0.0429688-0.0219727l0.2822266-0.1376953l0.2666016-0.1210938l0.2646484-0.1132813l0.2919922-0.1147461l0.2675781-0.0981445 l0.2578125-0.0888672l0.28125-0.0913086l0.2890625-0.0839844l0.28125-0.074707l0.2939453-0.0722656l0.2861328-0.0620117 l0.2871094-0.0566406l0.3046875-0.0522461l0.2929688-0.0429688l0.2832031-0.0380859l0.2998047-0.0327148l0.3056641-0.0263672 l0.296875-0.0209961l0.3017578-0.0136719l0.3115234-0.0092773l0.2939453-0.0019531l0.2333984,0.0019531l0.2363281,0.0063477 l0.2158203,0.0078125l0.2226563,0.012207l0.2314453,0.0166016l0.2216797,0.019043l0.2197266,0.0239258l0.2382813,0.0302734 l0.2109375,0.0297852l0.2109375,0.0351563l0.2382813,0.0429688l0.2285156,0.046875l0.1972656,0.0454102l0.2265625,0.0537109 l0.2255859,0.0629883l0.1962891,0.0571289l0.2080078,0.0649414l0.2177734,0.0727539l0.2099609,0.0771484l0.2050781,0.0800781 l0.2177734,0.0898438l0.1953125,0.0869141l0.2148438,0.1000977l0.2041016,0.1049805l0.1826172,0.0981445l0.1962891,0.1098633 l0.1953125,0.1171875l0.1894531,0.1210938l0.0302734,0.0200195l0.4882813-0.3652344l0.5205078-0.284668l0.0673828-0.0283203 l0.1591797-2.2519531l0.0185547-0.230957L173.5605469,152l0.0263672-0.2158203l0.0322266-0.2431641l0.0390625-0.2397461 l0.0410156-0.230957l0.046875-0.2231445l0.0498047-0.2358398l0.0595703-0.2314453l0.0585938-0.2167969l0.0703125-0.2348633 l0.0712891-0.2192383l0.078125-0.2260742l0.0810547-0.2138672l0.0869141-0.21875l0.09375-0.2109375l0.0976563-0.2133789 l0.1074219-0.21875l0.1142578-0.2143555l0.1220703-0.2119141l0.1142578-0.1918945l0.1289063-0.2021484l0.1308594-0.190918 l0.1357422-0.1899414l0.1376953-0.1831055l0.1513672-0.190918l0.1669922-0.1938477l0.1445313-0.1621094l0.1757813-0.1860352 l0.1806641-0.1757813l0.1464844-0.1391602l0.1699219-0.1518555l0.1943359-0.1660156l0.2041016-0.1630859l0.1865234-0.1401367 l0.1806641-0.1269531l0.1943359-0.1318359l0.2021484-0.1298828l0.2089844-0.125l0.2207031-0.1240234l0.2001953-0.1030273 l0.1943359-0.0991211l0.2382813-0.1123047l0.2138672-0.0898438l0.2080078-0.0849609l0.2167969-0.0830078l0.2304688-0.0820313 l0.2246094-0.0717773l0.2167969-0.0668945l0.2275391-0.0634766l0.2392578-0.0615234l0.2470703-0.0541992l0.2080078-0.0429688 l0.2353516-0.0458984l0.2314453-0.0380859l0.2314453-0.0341797l0.2460938-0.0327148l0.2226563-0.0244141l0.2451172-0.0229492 l0.2412109-0.0166016l0.2363281-0.0141602l0.2548828-0.0102539l0.2333984-0.0048828l0.2412109-0.0009766l0.34375,0.0019531 l0.3417969,0.0083008l0.3330078,0.015625l0.3232422,0.019043l0.3349609,0.0258789l0.3154297,0.0361328l0.3154297,0.0390625 l0.3251953,0.0488281l0.3076172,0.0571289l0.3134766,0.0649414l0.2988281,0.0742188l0.3105469,0.0839844l0.3154297,0.1010742 l0.3056641,0.1079102l0.2939453,0.1201172l0.3066406,0.1376953l0.3144531,0.1640625l0.2607422,0.1523438l0.2773438,0.1757813 l0.2851563,0.2070313l0.2978516,0.2397461l0.28125,0.2670898l0.2402344,0.2529297l0.2363281,0.2861328l0.2333984,0.3291016 l0.1894531,0.3149414l0.1826172,0.3500977l0.1572266,0.3818359l0.1181641,0.3520508l0.0947266,0.3671875l0.0673828,0.3579102 l0.0458984,0.3701172l0.0097656,0.1899414l0.0078125,0.1289063l0.0039063,0.1870117l-0.0039063,0.1948242l-0.0058594,0.1411133 l-0.0068359,0.1411133l-0.0175781,0.184082l-0.0166016,0.1557617l-0.0214844,0.1450195l-0.0195313,0.1259766l-0.0175781,0.1162109 l-0.0273438,0.1489258l-0.0322266,0.152832l-0.0351563,0.1601563l-0.0361328,0.1459961l-0.046875,0.1738281l-0.8222656,2.6533203 l0.1728516-0.0219727l0.3212891-0.0390625l0.3232422-0.0400391l0.3222656-0.0400391l0.3212891-0.0410156l0.3222656-0.0390625 l0.3183594-0.0390625l0.1787109-0.0219727l1.2089844-0.2260742l1.9101563,0.8950195l0.2646484-0.105957l0.3193359-0.112793 l0.328125-0.1020508l0.3291016-0.0849609l0.3251953-0.0722656l0.3525391-0.0629883l0.3310547-0.0429688l0.3232422-0.0327148 l0.34375-0.0200195l0.3320313-0.0063477l0.2421875,0.0039063l0.2158203,0.0092773l0.1972656,0.0117188l0.2304688,0.0200195 l0.2470703,0.0322266l0.2089844,0.0341797l0.2626953,0.0498047l0.2060547,0.0517578l0.2177734,0.0551758l0.2734375,0.0898438 l0.2060547,0.0771484l0.2382813,0.097168l0.2373047,0.1137695l0.2666016,0.1420898l0.1855469,0.1171875l0.2402344,0.1538086 l0.4609375,0.3720703l0.3056641,0.315918l0.0878906-0.0517578l0.3417969-0.1821289l0.3417969-0.1699219l0.3271484-0.1542969 l0.1826172-0.0820313l0.171875-0.0727539l0.1835938-0.0771484l0.1865234-0.0737305l0.1708984-0.065918L206.25,154.6030273 l0.1884766-0.0649414l0.1621094-0.0551758l0.1738281-0.0556641l0.2050781-0.0639648l0.1728516-0.0483398l0.1787109-0.0498047 l0.2109375-0.0561523l0.1767578-0.0419922l0.1806641-0.0429688l0.1806641-0.0380859l0.1972656-0.0419922l0.1855469-0.0327148 l0.1806641-0.0332031l0.1933594-0.0317383l0.2001953-0.0302734l0.2001953-0.0258789l0.1865234-0.0219727l0.1943359-0.0200195 l0.1679688-0.0161133l0.1826172-0.0161133l0.2255859-0.0166016l0.1835938-0.0083008l0.1650391-0.0087891l0.2216797-0.0092773 l0.2138672-0.0009766l0.1699219-0.0009766l0.2275391,0.0019531l0.2333984,0.0063477l0.1962891,0.0078125l0.2382813,0.0112305 l0.2353516,0.0185547l0.2099609,0.0180664l0.2226563,0.0239258l0.2167969,0.0283203l0.2197266,0.0297852l0.2177734,0.0361328 l0.21875,0.0390625l0.2236328,0.0458984l0.2138672,0.0458984l0.2080078,0.0512695l0.2255859,0.0576172L214.6484375,154.25 l0.21875,0.0649414l0.2148438,0.0722656l0.2001953,0.0688477l0.2128906,0.0820313l0.2109375,0.0830078l0.1953125,0.0869141 l0.1787109,0.078125l0.2236328,0.105957l0.1914063,0.0991211l0.1923828,0.1020508l0.1289063,0.0737305l0.1591797-0.1308594 l0.5205078-0.3442383l0.5332031-0.2788086l0.5341797-0.2177734l0.5283203-0.1621094l0.5126953-0.1181641l0.5-0.0756836 l0.4804688-0.0463867l0.46875-0.0180664l0.4521484,0.003418l0.2558594,0.0107422l0.2294922,0.0131836l0.2373047,0.019043 l0.2304688,0.0239258l0.2167969,0.0249023l0.2392578,0.0332031l0.2089844,0.034668l0.2080078,0.0351563l0.2402344,0.0498047 l0.1982422,0.0429688l0.2353516,0.0581055l0.2167969,0.0600586l0.1962891,0.0551758l0.2226563,0.0678711l0.2216797,0.0751953 l0.2177734,0.0805664l0.1826172,0.0722656l0.2070313,0.0830078l0.2207031,0.097168l0.2158203,0.0996094l0.1982422,0.1020508 l0.1767578,0.0932617l0.2021484,0.1118164l0.1972656,0.1142578l0.1982422,0.1225586l0.1806641,0.1191406l0.1865234,0.125 l0.1894531,0.137207l0.1767578,0.1318359l0.1953125,0.1538086l0.3330078,0.2832031l0.3212891,0.3041992l0.2451172,0.2509766 l0.2890625-2.5800781h9.3642578v0.0009766h3.9208984C242.7539063,155.6201172,243.0703125,157.019043,243.2607422,158.3330078 M109.640625,181.5c10.3525391,10.6469727,32.0820313,18.0083008,57.1162109,18.0083008 c24.8378906,0,46.4238281-7.2460938,56.8701172-17.7583008l-0.0449219-0.0107422l-0.2050781-0.0454102l-0.2128906-0.0537109 l-0.2148438-0.0561523l-0.2109375-0.0629883l-0.2207031-0.0678711l-0.2011719-0.0698242l-0.2128906-0.0751953l-0.2304688-0.0917969 l-0.1826172-0.0761719l-0.1933594-0.0839844l-0.2148438-0.1000977l-0.2177734-0.1118164l-0.1914063-0.1030273l-0.1806641-0.1010742 l-0.1982422-0.1191406l-0.1914063-0.1220703l-0.1933594-0.1279297l-0.1787109-0.1279297L219.75,180.0112305l-0.2021484-0.1601563 l-0.3154297-0.2670898l-0.3232422-0.2998047l-0.3222656-0.3339844l-0.296875-0.3461914l-0.0800781-0.1030273l-0.2490234,0.2949219 l-0.2871094,0.2983398l-0.2685547,0.2426758l-0.2001953,0.1713867l-0.2041016,0.1625977l-0.2041016,0.1542969l-0.2177734,0.1547852 l-0.2382813,0.1582031l-0.234375,0.144043l-0.2304688,0.1328125l-0.2363281,0.1269531l-0.2470703,0.125l-0.2480469,0.1171875 l-0.2382813,0.1040039l-0.2470703,0.1030273l-0.2529297,0.0991211l-0.2539063,0.0917969l-0.2558594,0.0849609l-0.2773438,0.0878906 l-0.2666016,0.0761719l-0.2734375,0.0737305l-0.2626953,0.0629883l-0.265625,0.0610352l-0.2890625,0.0581055l-0.2705078,0.050293 l-0.2666016,0.0439453l-0.2734375,0.0410156l-0.2890625,0.0356445l-0.2871094,0.03125l-0.2646484,0.0239258l-0.2753906,0.0200195 l-0.2929688,0.0180664l-0.2792969,0.0107422l-0.2822266,0.0073242l-0.2929688,0.0019531l-0.3066406-0.0019531l-0.3037109-0.0102539 l-0.2949219-0.0136719l-0.3076172-0.0200195l-0.3095703-0.0292969l-0.2890625-0.0317383l-0.2919922-0.0371094l-0.3173828-0.0478516 l-0.2890625-0.0532227l-0.2792969-0.0561523l-0.2978516-0.0668945l-0.28125-0.0678711l-0.3037109-0.0820313l-0.28125-0.0869141 l-0.2666016-0.0849609l-0.2841797-0.1010742l-0.2841797-0.1069336l-0.2773438-0.1142578l-0.2695313-0.1186523l-0.2675781-0.125 l-0.2617188-0.1323242l-0.2646484-0.1411133l-0.2636719-0.1489258l-0.2412109-0.1459961l-0.2558594-0.1621094l-0.25-0.1708984 l-0.2363281-0.1669922l-0.2392578-0.1806641l-0.2255859-0.1772461l-0.2382813-0.1977539l-0.2226563-0.2001953l-0.2080078-0.1899414 l-0.2158203-0.2089844l-0.2080078-0.2109375l-0.2001953-0.215332l-0.1972656-0.21875l-0.1933594-0.2270508l-0.1816406-0.2270508 l-0.1884766-0.2451172l-0.1699219-0.2368164l-0.1640625-0.2348633l-0.1660156-0.2573242l-0.1542969-0.2490234l-0.1503906-0.2548828 l-0.140625-0.2578125l-0.1396484-0.2661133L197.8789063,175.125l-0.0966797-0.2080078L197.28125,181.5h-9.8701172 l-2.5537109-0.237793l-0.1738281,0.5390625l-0.2558594,0.7006836l-0.2802734,0.6791992l-0.3046875,0.6547852l-0.3242188,0.6323242 l-0.3505859,0.6049805l-0.3691406,0.5786133l-0.3916016,0.5532227l-0.4130859,0.5258789l-0.4306641,0.5l-0.4492188,0.4711914 l-0.4648438,0.440918l-0.4833984,0.4121094l-0.4951172,0.3837891l-0.5058594,0.3530273l-0.5166016,0.3222656l-0.5263672,0.2929688 l-0.5332031,0.2636719l-0.5361328,0.2353516l-0.5400391,0.2050781l-0.5410156,0.1777344l-0.5410156,0.1518555l-0.5419922,0.125 l-0.5380859,0.1010742l-0.5351563,0.0761719l-0.5332031,0.0537109l-0.5253906,0.03125l-4.8378906,0.0952148 c-2.0693359,0.0087891-2.5917969-1.4492188-1.515625-3.1064453l2.4345703-3.6889648l0.0898438-0.144043l0.0966797-0.1650391 l0.1015625-0.1835938l0.1064453-0.1972656l0.1074219-0.2138672l0.1083984-0.2270508l0.1113281-0.2407227l0.1103516-0.25 l0.1113281-0.2602539l0.1103516-0.269043l0.1113281-0.277832l0.0976563-0.2592773l-0.2138672-0.0239258l-0.2509766-0.0336914 l-0.2119141-0.0361328l-0.2080078-0.0361328l-0.2382813-0.0478516l-0.2109375-0.0493164l-0.2001953-0.0488281l-0.2265625-0.059082 l-0.2167969-0.0629883l-0.2158203-0.065918l-0.2363281-0.0820313l-0.1894531-0.0688477l-0.1884766-0.0732422l-0.234375-0.0966797 l-0.2041016-0.0913086l-0.1875-0.0859375l-0.1943359-0.0966797l-0.2128906-0.1103516l-0.2236328-0.1259766l-0.171875-0.1030273 l-0.171875-0.1049805l-0.2011719-0.1289063l-0.1767578-0.1220703l-0.1787109-0.125l-0.1923828-0.1459961l-0.2060547-0.1621094 l-0.3242188-0.2788086l-0.3232422-0.3007813l-0.25-0.2563477L163.5400391,181.5h-12.0810547l-0.0527344,0.0209961 l-0.3515625,0.1230469l-0.3808594,0.1088867l-0.3632813,0.0849609l-0.3662109,0.0693359l-0.3691406,0.0507813l-0.3603516,0.0341797 l-0.3652344,0.0209961l-0.3789063,0.0078125l-0.2890625-0.0058594L147.890625,182l-0.2802734-0.0239258l-0.3056641-0.0361328 l-0.3017578-0.0507813l-0.2744141-0.0532227l-0.2832031-0.0688477l-0.2734375-0.0742188l-0.2978516-0.09375l-0.2890625-0.1049805 l-0.2548828-0.1040039l-0.2636719-0.1171875l-0.2675781-0.1328125l-0.2548828-0.137207l-0.25-0.1469727l-0.2451172-0.1547852 l-0.2539063-0.1762695l-0.0908203-0.0668945l-0.2216797,0.1240234l-0.2714844,0.1469727l-0.3007813,0.1469727l-0.296875,0.1342773 l-0.2871094,0.1166992l-0.2900391,0.1113281l-0.2949219,0.1020508l-0.3154297,0.0986328l-0.3115234,0.0849609l-0.2978516,0.0742188 l-0.3027344,0.065918l-0.3134766,0.0620117L139.875,181.7783203l-0.3125,0.0405273l-0.3046875,0.0341797l-0.3261719,0.0292969 l-0.3320313,0.0166016l-0.3173828,0.012207l-0.3115234,0.0029297l-0.2871094-0.0009766l-0.2851563-0.0131836l-0.2558594-0.015625 l-0.2695313-0.0209961l-0.2773438-0.0322266l-0.2675781-0.0351563l-0.2675781-0.0429688l-0.2705078-0.0498047l-0.2705078-0.0571289 l-0.2744141-0.0678711l-0.2568359-0.0688477l-0.265625-0.0791016l-0.2578125-0.0849609l-0.2578125-0.0913086l-0.2587891-0.1020508 l-0.2480469-0.1025391l-0.25-0.1123047l-0.2402344-0.1147461l-0.2333984-0.1201172l-0.2578125-0.1391602l-0.2519531-0.1469727 l-0.2138672-0.1318359l-0.1699219-0.1098633L131.75,180.4628906l-0.8486328,0.5551758l-0.9462891,0.4418945l-1.015625,0.3129883 l-1.0605469,0.1821289l-1.0878906,0.0561523l-1.0429688-0.0600586l-0.3085938-0.0351563l-0.2441406-0.0327148l-0.2148438-0.0371094 l-0.2089844-0.0361328l-0.234375-0.0478516l-0.2128906-0.0483398l-0.2080078-0.0498047l-0.2216797-0.059082l-0.2109375-0.0620117 l-0.2216797-0.0668945l-0.2392578-0.0820313l-0.1845703-0.0688477l-0.1923828-0.0742188l-0.2353516-0.0966797l-0.1865234-0.0854492 l-0.1953125-0.0878906l-0.2109375-0.105957l-0.2089844-0.1079102l-0.2050781-0.1152344l-0.1777344-0.1049805l-0.1933594-0.1186523 l-0.1875-0.1230469l-0.1650391-0.1123047l-0.1904297-0.1337891l-0.1982422-0.1489258l-0.1982422-0.15625l-0.3242188-0.2797852 l-0.3261719-0.3041992l-0.2441406-0.2509766L119.1074219,181.5H109.640625z"></path> <path fill-rule="evenodd" clip-rule="evenodd" fill="#057332" d="M224.6318359,197.9907227 c2.6240234,0,4.7646484,2.1401367,4.7646484,4.762207c0,2.6230469-2.140625,4.7636719-4.7646484,4.7636719 c-2.6210938,0-4.7617188-2.140625-4.7617188-4.7636719C219.8701172,200.1308594,222.0107422,197.9907227,224.6318359,197.9907227 M224.6318359,198.769043c2.1962891,0,3.9853516,1.7895508,3.9853516,3.9838867 c0,2.1958008-1.7890625,3.9838867-3.9853516,3.9838867c-2.1943359,0-3.9824219-1.7880859-3.9824219-3.9838867 C220.6494141,200.5585938,222.4375,198.769043,224.6318359,198.769043 M223.4179688,200.737793v1.7851563h1.2226563 c0.4423828,0,0.7529297-0.0722656,0.9375-0.215332c0.1806641-0.144043,0.2734375-0.3808594,0.2734375-0.7148438 c0-0.3129883-0.0859375-0.5317383-0.2568359-0.6630859c-0.1738281-0.1279297-0.4902344-0.1918945-0.9541016-0.1918945H223.4179688z M222.7167969,200.1176758h2.0419922c0.3310547,0,0.5761719,0.0151367,0.7314453,0.0419922 c0.1582031,0.0302734,0.296875,0.0771484,0.4208984,0.144043c0.2236328,0.1210938,0.3916016,0.2919922,0.5078125,0.5073242 c0.1162109,0.2177734,0.1728516,0.4736328,0.1728516,0.7666016c0,0.2841797-0.0605469,0.5273438-0.1826172,0.7280273 c-0.1210938,0.203125-0.3017578,0.3613281-0.5439453,0.4750977c0.2060547,0.0571289,0.3515625,0.152832,0.4375,0.2890625 c0.0869141,0.1357422,0.140625,0.3662109,0.1630859,0.690918l0.0595703,0.8691406 c0.0126953,0.1860352,0.0380859,0.324707,0.0732422,0.4160156c0.0380859,0.0927734,0.09375,0.1577148,0.1689453,0.1967773 v0.1459961h-0.8261719c-0.0683594-0.1098633-0.1142578-0.34375-0.1396484-0.7050781v-0.0219727l-0.0449219-0.6870117 c-0.0234375-0.3530273-0.0976563-0.5805664-0.2246094-0.6870117c-0.1269531-0.1040039-0.4423828-0.1557617-0.9482422-0.1557617 h-1.1591797v2.2568359h-0.7080078V200.1176758z"></path> <path fill-rule="evenodd" clip-rule="evenodd" fill="#FFFFFF" d="M126.1132813,177.7543945l-0.1445313-0.0170898 l-0.140625-0.019043l-0.1376953-0.0239258l-0.1376953-0.0239258l-0.1347656-0.0283203l-0.1347656-0.0288086l-0.1308594-0.0322266 l-0.1298828-0.034668l-0.1298828-0.0371094l-0.1269531-0.0400391l-0.1220703-0.0419922l-0.1230469-0.0458984l-0.1220703-0.0463867 l-0.1191406-0.0488281l-0.1181641-0.0527344l-0.1162109-0.0532227l-0.1152344-0.0581055l-0.1123047-0.0581055L123.7070313,177 l-0.1113281-0.0639648l-0.109375-0.065918l-0.1054688-0.0708008l-0.1054688-0.0712891l-0.1054688-0.0737305l-0.1015625-0.0771484 l-0.0976563-0.0761719l-0.1943359-0.1669922l-0.1826172-0.1699219l-0.1679688-0.1738281l-0.1601563-0.1801758l-0.1445313-0.1826172 l-0.1337891-0.1884766l-0.1230469-0.1918945l-0.1123047-0.1958008l-0.0996094-0.203125l-0.0908203-0.2080078l-0.0800781-0.2138672 l-0.0683594-0.2211914l-0.0585938-0.2270508l-0.0478516-0.2338867l-0.0371094-0.2397461L121.2421875,173.25l-0.0058594-0.0639648 l-0.0039063-0.0708008l-0.0029297-0.078125l-0.0048828-0.0791016l-0.0019531-0.0859375v-0.0859375l-0.0019531-0.0917969v-0.0932617 l0.0019531-0.0976563l0.0019531-0.1030273l0.0039063-0.1049805l0.0029297-0.109375l0.0039063-0.1108398l0.0048828-0.1171875 l0.0078125-0.1176758l0.0078125-0.137207v-0.0888672l0.0039063-0.0732422l0.0039063-0.1157227l0.0019531-0.0541992 l0.0019531-0.0498047l0.0019531-0.050293l0.0009766-0.0336914l1.2802734-16.9301758l0.0019531-0.0117188l0.0019531-0.0273438 l0.0048828-0.0297852l0.0029297-0.0292969l0.0039063-0.0327148l0.0029297-0.0380859l0.0029297-0.0429688l0.0009766-0.0400391 l0.0009766-0.0400391l-0.0009766-0.0439453l-0.0009766-0.0410156l-0.0019531-0.0322266l-0.0009766-0.0327148l-0.0029297-0.0351563 l-0.0029297-0.0288086l-0.0029297-0.0371094l-0.015625-0.1420898l-0.0292969-0.1499023l-0.0390625-0.1518555l-0.0527344-0.1469727 l-0.0673828-0.1420898l-0.0830078-0.1411133l-0.0976563-0.1308594l-0.1132813-0.1210938l-0.1269531-0.105957l-0.140625-0.0961914 l-0.1484375-0.074707l-0.1533203-0.0600586l-0.1552734-0.0429688l-0.1582031-0.0283203l-0.1582031-0.0175781l-0.15625-0.0053711 l-0.1933594,0.0043945l-0.1855469,0.0117188l-0.1855469,0.019043l-0.1816406,0.027832l-0.1787109,0.0361328l-0.1787109,0.0429688 l-0.171875,0.0532227l-0.171875,0.0600586L119.25,152.5302734l-0.1640625,0.0771484l-0.1601563,0.0839844l-0.15625,0.0917969 l-0.1523438,0.1000977l-0.1484375,0.1069336l-0.140625,0.1137695l-0.1396484,0.1230469l-0.1318359,0.1303711l-0.1289063,0.1337891 l-0.1181641,0.1391602l-0.1113281,0.1459961l-0.1064453,0.1508789l-0.0976563,0.1538086l-0.0888672,0.1611328l-0.0820313,0.1630859 L117.25,154.5742188l-0.0664063,0.1728516l-0.0605469,0.175293l-0.0507813,0.1787109l-0.0429688,0.1821289l-0.0351563,0.1860352 l-0.0292969,0.1889648l-0.0214844,0.190918l-1.5996094,21.4389648h-5.7070313l1.6435547-21.6176758 c0.0576172-0.7944336,0.1972656-1.734375,0.0224609-2.3500977l-0.0546875-0.1469727l-0.0664063-0.1420898l-0.0820313-0.1411133 L111,152.7592773l-0.1132813-0.1210938l-0.125-0.105957l-0.1416016-0.0961914l-0.1474609-0.074707l-0.1533203-0.0600586 l-0.15625-0.0429688l-0.1552734-0.0283203l-0.1621094-0.0175781l-0.1542969-0.0053711l-0.1933594,0.0043945l-0.1875,0.0117188 l-0.1835938,0.019043l-0.1816406,0.027832l-0.1796875,0.0361328l-0.1757813,0.0429688l-0.1767578,0.0532227l-0.1699219,0.0600586 l-0.1679688,0.0678711l-0.1640625,0.0771484l-0.1591797,0.0839844l-0.15625,0.0917969l-0.1523438,0.1000977l-0.1464844,0.1069336 l-0.1425781,0.1137695l-0.140625,0.1230469l-0.1328125,0.1303711l-0.1269531,0.1337891l-0.1191406,0.1391602l-0.1113281,0.1459961 l-0.1035156,0.1508789l-0.0986328,0.1538086l-0.0898438,0.1611328l-0.0820313,0.1630859l-0.0751953,0.1689453l-0.0664063,0.1728516 l-0.0576172,0.175293l-0.0498047,0.1787109l-0.0449219,0.1821289l-0.0371094,0.1860352l-0.0273438,0.1889648l-0.0224609,0.190918 l-1.5986328,21.4389648h-5.7070313l1.7441406-22.934082l0.0058594-0.0385742l0.0078125-0.0673828l0.0078125-0.0668945 l0.0078125-0.0688477l0.0039063-0.0703125l0.0048828-0.0717773l0.0029297-0.0732422L100.25,153.8251953v-0.0698242 l-0.0019531-0.0712891l-0.0029297-0.0756836l-0.0009766-0.0761719l-0.0048828-0.078125l-0.0048828-0.0820313l-0.0048828-0.0859375 l-0.0087891-0.1010742l-0.03125-0.2480469l-0.0585938-0.2568359l-0.0839844-0.2451172l-0.1132813-0.2348633l-0.1386719-0.2202148 l-0.1640625-0.2006836l-0.1875-0.1801758l-0.2011719-0.1508789l-0.1210938-0.0771484l-0.1152344-0.0639648l-0.1171875-0.0581055 l-0.1191406-0.0537109l-0.1240234-0.0483398l-0.1259766-0.0410156l-0.1308594-0.0385742l-0.1308594-0.0332031l-0.1347656-0.027832 l-0.1376953-0.0253906l-0.1396484-0.0195313l-0.1425781-0.0180664l-0.1445313-0.012207l-0.1494141-0.0087891l-0.1494141-0.0053711 l-0.1572266-0.0019531l-0.1318359,0.0019531h-0.0058594l0.8505859-2.1357422l0.0615234-0.1362305l0.0634766-0.1108398 l0.0751953-0.1010742l0.0839844-0.0966797l0.0996094-0.0913086l0.1162109-0.0878906l0.1298828-0.0839844l0.1542969-0.0820313 l0.0761719-0.0341797l0.0820313-0.0356445l0.0898438-0.0322266l0.0917969-0.0332031l0.0957031-0.0268555l0.0996094-0.027832 l0.1054688-0.0229492l0.109375-0.0239258l0.1132813-0.019043l0.1162109-0.0180664l0.1230469-0.0141602l0.1259766-0.0151367 l0.1289063-0.0078125l0.1347656-0.0068359l0.1386719-0.0039063l0.140625-0.0009766l0.1679688,0.0029297l0.1630859,0.0048828 l0.1601563,0.0097656l0.1572266,0.0141602l0.1542969,0.019043l0.1513672,0.0209961l0.1474609,0.0268555l0.1484375,0.0302734 l0.1425781,0.0336914l0.1416016,0.0380859l0.1396484,0.0429688l0.1347656,0.0449219l0.1347656,0.0483398l0.1318359,0.0546875 l0.1289063,0.0581055l0.1318359,0.0629883l0.1289063,0.0649414l0.1230469,0.0668945l0.1181641,0.0712891l0.1191406,0.074707 l0.1152344,0.0791016l0.1123047,0.0820313l0.1103516,0.0849609l0.109375,0.090332l0.1064453,0.09375l0.1025391,0.0952148 l0.1015625,0.1010742l0.1005859,0.105957l0.0976563,0.1088867l0.0957031,0.112793l0.09375,0.1162109l0.5761719,0.7578125 l0.7578125-0.6508789l0.1542969-0.1269531l0.1552734-0.1220703l0.1572266-0.1191406l0.1582031-0.1118164l0.1601563-0.1098633 l0.1621094-0.105957l0.1621094-0.0991211l0.1660156-0.0952148l0.1660156-0.0927734l0.1699219-0.0859375l0.171875-0.0839844 l0.171875-0.0791016l0.1738281-0.0742188l0.1777344-0.0688477l0.1787109-0.0678711l0.1845703-0.0639648l0.1855469-0.059082 l0.1855469-0.0541992l0.1943359-0.0507813l0.1933594-0.0493164l0.1962891-0.0419922L109.5,147.8354492l0.2021484-0.0351563 l0.2060547-0.03125l0.2080078-0.0268555l0.2099609-0.0219727l0.2148438-0.0180664l0.2167969-0.0161133l0.2207031-0.0097656 l0.2216797-0.0068359l0.2275391-0.0009766l0.0664063,0.0009766l0.0507813-0.0009766l0.1679688,0.0029297l0.1640625,0.0048828 l0.109375,0.0078125l0.0830078,0.0039063l0.1533203,0.0112305l0.1523438,0.012207l0.1494141,0.0166016l0.1474609,0.019043 l0.1445313,0.0200195l0.1425781,0.0229492l0.1367188,0.0263672l0.1386719,0.0288086l0.1347656,0.0288086l0.1328125,0.0332031 l0.1289063,0.0351563l0.1269531,0.0366211l0.1269531,0.0390625l0.1230469,0.0419922l0.1210938,0.0429688l0.1191406,0.0473633 l0.1152344,0.0478516l0.1142578,0.0498047l0.1123047,0.0541992l0.1074219,0.0551758l0.1074219,0.0566406l0.1064453,0.0620117 l0.1044922,0.0610352l0.1005859,0.0639648l0.0986328,0.065918l0.0976563,0.0683594l0.0947266,0.0708008l0.0908203,0.0722656 l0.1865234,0.1557617l0.1689453,0.1582031l0.1582031,0.1635742l0.1474609,0.1733398l0.1376953,0.1757813l0.1269531,0.184082 l0.0449219,0.0742188l0.3808594-0.3271484l0.1542969-0.1269531l0.15625-0.1220703l0.1552734-0.1191406l0.1591797-0.1118164 l0.1601563-0.1098633l0.1621094-0.105957l0.1640625-0.0991211l0.1640625-0.0952148l0.1679688-0.0927734l0.1699219-0.0859375 l0.1699219-0.0839844l0.171875-0.0791016l0.1748047-0.0742188l0.1757813-0.0688477l0.1806641-0.0678711l0.1845703-0.0639648 l0.1845703-0.059082l0.1884766-0.0541992l0.1904297-0.0507813l0.1953125-0.0493164l0.1953125-0.0419922l0.2011719-0.0385742 l0.2011719-0.0351563l0.2050781-0.03125l0.2089844-0.0268555L121.5,147.7202148l0.2148438-0.0180664l0.2167969-0.0161133 l0.2216797-0.0097656l0.2216797-0.0068359l0.2265625-0.0009766l0.1640625,0.0009766l0.1621094,0.0029297l0.1582031,0.0068359 l0.15625,0.0087891l0.1552734,0.0112305l0.1513672,0.012207l0.1484375,0.0166016l0.1464844,0.019043l0.1464844,0.0200195 l0.140625,0.0229492l0.140625,0.0263672l0.1367188,0.0288086l0.1367188,0.0288086l0.1308594,0.0332031l0.1289063,0.0351563 l0.1289063,0.0366211l0.1269531,0.0390625l0.1210938,0.0419922l0.1210938,0.0429688l0.1171875,0.0473633l0.1181641,0.0478516 l0.1132813,0.0498047l0.1103516,0.0541992l0.1113281,0.0551758l0.1074219,0.0566406l0.1054688,0.0620117l0.1025391,0.0610352 l0.1025391,0.0639648l0.0996094,0.065918l0.0957031,0.0683594l0.0957031,0.0708008l0.0917969,0.0722656l0.1845703,0.1557617 l0.1689453,0.1582031l0.1591797,0.1635742l0.1474609,0.1733398l0.1367188,0.1757813l0.1269531,0.184082l0.1171875,0.1918945 l0.1074219,0.1992188l0.0957031,0.2060547l0.0898438,0.2138672l0.0761719,0.2241211l0.0693359,0.2299805l0.0595703,0.2397461 l0.0488281,0.2490234l0.0371094,0.2612305l0.0273438,0.2719727l0.0078125,0.074707l0.0039063,0.0820313l0.0039063,0.0830078 l0.0019531,0.0800781l0.0019531,0.0810547v0.0800781l-0.0019531,0.078125v0.0820313l-0.0019531,0.0805664l-0.0058594,0.0830078 l-0.0039063,0.0830078l-0.0058594,0.0854492l-0.0058594,0.081543l-0.0058594,0.0844727l-0.0078125,0.0795898l-0.0078125,0.0932617 l-1.2890625,17.4077148l0.0019531,0.0322266v0.0087891l-0.0039063,0.0161133l-0.0058594,0.0551758L127,171.1904297 l-0.0019531,0.140625l-0.0019531,0.1313477l0.0019531,0.1206055L127,171.6962891l0.0019531,0.1020508l0.0058594,0.0947266 l0.0058594,0.0981445l0.0332031,0.262207l0.0546875,0.2646484l0.078125,0.2539063l0.1025391,0.2460938l0.1298828,0.2299805 l0.1582031,0.2143555l0.1816406,0.1948242l0.1953125,0.1630859l0.1191406,0.0820313l0.1113281,0.0678711l0.1171875,0.0639648 l0.1210938,0.0581055l0.125,0.0498047l0.1269531,0.046875l0.1308594,0.0390625l0.1308594,0.0380859l0.1386719,0.0292969 l0.1386719,0.0268555c0.4316406,0.065918,0.875,0.0668945,1.3173828,0.027832 C130.4794922,175.2651367,129.9960938,178.1582031,126.1132813,177.7543945 M193.8945313,157.9960938l0.0107422-0.0029297 l-0.5625,7.1870117l1.8359375-3.8701172l0.1054688-0.2089844l0.1103516-0.2016602l0.1142578-0.1943359l0.1132813-0.1870117 l0.1181641-0.1816406l0.1191406-0.1723633l0.1240234-0.1669922l0.1269531-0.1577148l0.1289063-0.1523438l0.1298828-0.1450195 l0.1328125-0.1367188l0.1357422-0.1323242l0.1416016-0.125l0.140625-0.1186523l0.1435547-0.1098633l0.1445313-0.1040039 l0.1503906-0.0991211l0.1494141-0.0913086l0.1513672-0.0830078l0.1533203-0.0756836l0.1542969-0.0693359l0.1552734-0.0615234 l0.1591797-0.0551758l0.1611328-0.0512695l0.1611328-0.0429688l0.1660156-0.034668l0.1660156-0.0302734l0.171875-0.0209961 l0.171875-0.019043l0.1767578-0.0097656l0.1787109-0.0029297h0.1132813l0.109375,0.0058594l0.1025391,0.0058594 l0.0976563,0.0083008l0.0947266,0.0126953l0.0859375,0.0141602l0.0820313,0.0151367l0.078125,0.0200195l0.0742188,0.0180664 l0.0664063,0.0219727l0.0615234,0.0229492l0.0576172,0.0249023l0.0537109,0.0239258l0.046875,0.0268555l0.0429688,0.0249023 l0.03125,0.0214844l0.0791016,0.0615234l0.0556641,0.059082l0.0498047,0.0649414l0.0429688,0.0722656l0.0351563,0.0839844 l0.0351563,0.1000977l0.0244141,0.1166992l0.0175781,0.1494141l0.0039063,0.0356445l0.0039063,0.0458984l0.0029297,0.043457 l0.0019531,0.0375977l0.0039063,0.0322266v0.0258789l0.0019531,0.019043v0.0161133v0.0268555v0.0620117v0.03125v0.0336914 v0.0361328l0.0019531,0.0151367l-0.2402344,3.3398438l-0.125-0.0380859l-0.1933594-0.0537109l-0.1875-0.0473633 l-0.0986328-0.0219727l-0.0966797-0.0209961l-0.0976563-0.019043l-0.0966797-0.015625l-0.0976563-0.0161133l-0.0957031-0.0141602 l-0.1005859-0.0131836l-0.0966797-0.0107422l-0.0966797-0.0102539l-0.0996094-0.0087891l-0.0986328-0.0068359l-0.0957031-0.0063477 l-0.1025391-0.0048828l-0.0986328-0.0029297l-0.0986328-0.0009766l-0.1035156-0.0009766l-0.2666016,0.0048828l-0.2636719,0.0141602 l-0.2578125,0.0249023l-0.2529297,0.0351563l-0.2470703,0.0458984l-0.2373047,0.0571289l-0.2324219,0.0678711l-0.2255859,0.0791016 l-0.2197266,0.0908203l-0.2109375,0.1030273l-0.2011719,0.1152344l-0.1953125,0.1269531l-0.1865234,0.1386719l-0.1757813,0.1513672 l-0.1660156,0.1625977l-0.1533203,0.1713867l-0.1455078,0.1826172l-0.1337891,0.1953125l-0.125,0.2050781l-0.1162109,0.2167969 l-0.1054688,0.2260742l-0.0986328,0.2368164l-0.0908203,0.2470703l-0.0830078,0.2568359l-0.0751953,0.2670898l-0.0673828,0.2783203 l-0.0605469,0.2885742l-0.0537109,0.2973633l-0.0488281,0.309082l-0.0410156,0.3188477l-0.0341797,0.3320313l-0.0283203,0.3369141 l-0.6953125,9.1728516h-5.7714844l1.1064453-14.4360352c-1.7089844,0.2001953-4.3291016,0.2319336-6.0048828,0.0239258 l-0.7871094,10.2011719l-0.015625,0.2041016l-0.0166016,0.1977539l-0.0175781,0.2011719l-0.0166016,0.1972656l-0.0166016,0.1977539 l-0.0175781,0.1967773l-0.0195313,0.1953125l-0.0195313,0.1928711l-0.0195313,0.1928711l-0.0195313,0.1933594l-0.0205078,0.1889648 l-0.0224609,0.190918l-0.0214844,0.1870117l-0.0214844,0.1889648l-0.0224609,0.1860352l-0.0244141,0.1860352l-0.0253906,0.1816406 l-0.0224609,0.1831055l-0.0244141,0.1831055l-0.0253906,0.1811523l-0.0273438,0.1777344l-0.0302734,0.2070313 c-1.1435547,7.4819336-5.4570313,9.8369141-9.2177734,9.8369141c1.6113281-2.3598633,3.0263672-6.980957,3.5039063-9.7949219 c-1.6728516,0.4462891-3.4912109,0.5922852-5.1806641,0.4243164l-0.1455078-0.0170898l-0.1416016-0.019043l-0.1376953-0.0239258 l-0.1376953-0.0239258l-0.1357422-0.0283203l-0.1337891-0.0288086l-0.1308594-0.0322266l-0.1298828-0.034668l-0.1298828-0.0371094 l-0.125-0.0400391l-0.125-0.0419922l-0.1230469-0.0458984l-0.1201172-0.0463867l-0.1220703-0.0488281l-0.1152344-0.0527344 l-0.1162109-0.0532227L168.375,177.1220703l-0.1142578-0.0581055L168.1494141,177l-0.1083984-0.0639648l-0.109375-0.065918 l-0.1074219-0.0708008l-0.1044922-0.0712891l-0.1044922-0.0737305l-0.1035156-0.0771484l-0.0966797-0.0761719l-0.1933594-0.1669922 l-0.1835938-0.1699219l-0.1689453-0.1738281l-0.1582031-0.1801758l-0.1435547-0.1826172l-0.1347656-0.1884766l-0.1230469-0.1918945 l-0.1123047-0.1958008l-0.1005859-0.203125l-0.0908203-0.2080078l-0.0791016-0.2138672l-0.0693359-0.2211914l-0.0585938-0.2270508 l-0.0478516-0.2338867l-0.0371094-0.2397461L165.6865234,173.25l-0.0039063-0.0639648l-0.0048828-0.0708008l-0.0048828-0.078125 l-0.0029297-0.0791016l-0.0019531-0.0859375l-0.0019531-0.0859375v-0.0917969v-0.0932617l0.0019531-0.0976563l0.0019531-0.1030273 l0.0019531-0.1049805l0.0039063-0.109375l0.0039063-0.1108398l0.0068359-0.1171875l0.0058594-0.1176758l0.0068359-0.137207 l0.0029297-0.0888672l0.0019531-0.0732422l0.0039063-0.1157227l0.0019531-0.0541992l0.0019531-0.0498047l0.0019531-0.050293 l0.0009766-0.0336914l0.5-6.6142578l0.0019531-0.0107422l0.0029297-0.0292969l0.0039063-0.0268555l0.0039063-0.0307617 l0.0019531-0.0322266l0.0039063-0.0390625l0.0029297-0.0439453l0.0009766-0.0410156v-0.0380859v-0.0439453l-0.0009766-0.0410156 l-0.0009766-0.0336914l-0.0029297-0.0302734l-0.0029297-0.0351563l-0.0019531-0.0297852l-0.0029297-0.0371094l-0.0166016-0.1396484 l-0.0273438-0.1523438l-0.0400391-0.1499023l-0.0527344-0.1489258l-0.0683594-0.1450195l-0.0830078-0.1381836l-0.0976563-0.1308594 l-0.1132813-0.1201172l-0.1259766-0.1088867l-0.140625-0.09375l-0.1474609-0.0751953l-0.1542969-0.0600586l-0.1552734-0.0419922 l-0.1572266-0.0297852l-0.1591797-0.0170898l-0.15625-0.0039063l-0.1933594,0.0029297l-0.1875,0.0107422l-0.1835938,0.0200195 l-0.1835938,0.0258789l-0.1777344,0.0380859l-0.1777344,0.0429688l-0.1738281,0.0522461l-0.1699219,0.0610352l-0.1689453,0.0678711 L162.75,162.9233398l-0.1601563,0.0830078l-0.1582031,0.09375l-0.1503906,0.0991211l-0.1464844,0.1079102l-0.1435547,0.1142578 l-0.1376953,0.1230469l-0.1328125,0.1279297l-0.1289063,0.1347656l-0.1191406,0.1401367l-0.1113281,0.1450195l-0.1035156,0.1499023 l-0.0986328,0.1547852l-0.0898438,0.1601563l-0.0820313,0.1640625l-0.0751953,0.1689453l-0.0664063,0.1708984l-0.0576172,0.1762695 l-0.0507813,0.1787109l-0.0439453,0.184082l-0.0371094,0.1860352l-0.0273438,0.1870117l-0.0214844,0.190918l-0.8193359,11.1240234 h-5.7060547l0.9628906-12.6166992l0.0058594-0.0400391l0.0078125-0.065918l0.0078125-0.0683594l0.0068359-0.0688477 l0.0048828-0.0708008l0.0058594-0.0712891l0.0039063-0.0737305v-0.0722656v-0.0688477v-0.0732422l-0.0019531-0.0737305 l-0.0019531-0.0761719l-0.0068359-0.0800781l-0.0039063-0.0810547l-0.0048828-0.0849609L155.0595703,163.5l-0.0322266-0.2475586 l-0.0585938-0.2543945l-0.0839844-0.2470703l-0.1132813-0.2348633l-0.1386719-0.2197266l-0.1660156-0.2011719l-0.1855469-0.1791992 l-0.2011719-0.1518555l-0.1191406-0.078125l-0.1171875-0.0629883l-0.1171875-0.0576172l-0.1181641-0.0532227l-0.1259766-0.046875 l-0.1259766-0.0429688l-0.1298828-0.0390625l-0.1308594-0.0332031l-0.1328125-0.0288086l-0.1396484-0.0249023l-0.1376953-0.019043 l-0.1445313-0.0180664l-0.1435547-0.012207l-0.1503906-0.0097656l-0.1494141-0.0048828l-0.1582031-0.0024414l-0.1289063,0.003418 l-0.0078125,0.0009766l0.8515625-2.1352539l0.0625-0.1376953l0.0625-0.1113281l0.0742188-0.1020508l0.0859375-0.0966797 l0.0996094-0.0913086l0.1142578-0.0869141l0.1298828-0.0839844l0.1552734-0.0820313l0.0751953-0.0341797l0.0820313-0.0336914 l0.0898438-0.0341797l0.0927734-0.0307617l0.0947266-0.03125l0.1015625-0.0258789l0.1044922-0.0249023l0.109375-0.0209961 l0.1123047-0.0200195l0.1191406-0.0180664l0.1191406-0.0151367l0.1269531-0.0117188l0.1308594-0.0102539l0.1328125-0.0068359 l0.1396484-0.0048828h0.1416016h0.1660156l0.1640625,0.0078125l0.1591797,0.0112305l0.1582031,0.0126953l0.1533203,0.019043 l0.1523438,0.0209961l0.1484375,0.0268555l0.1464844,0.0302734l0.1445313,0.0336914l0.1396484,0.0380859l0.1396484,0.0429688 l0.1357422,0.0449219l0.1347656,0.0493164l0.1308594,0.0537109l0.1289063,0.0581055l0.1318359,0.0629883l0.1289063,0.0649414 l0.1230469,0.0683594l0.1191406,0.0698242l0.1191406,0.0751953l0.1162109,0.0776367l0.1103516,0.0830078l0.1113281,0.0859375 l0.109375,0.0893555l0.1054688,0.0947266l0.1035156,0.0952148l0.1035156,0.1000977l0.0986328,0.105957l0.0957031,0.1088867 l0.0986328,0.1108398l0.0917969,0.1181641l0.5761719,0.7578125l0.7578125-0.6518555l0.1542969-0.1269531l0.1542969-0.1210938 l0.1582031-0.1166992l0.15625-0.1152344l0.1621094-0.1088867l0.1621094-0.1040039l0.1640625-0.1010742l0.1640625-0.0961914 l0.1679688-0.0908203l0.1679688-0.0878906l0.1699219-0.0839844l0.1738281-0.078125l0.1748047-0.0761719l0.1757813-0.0688477 L163,158.5102539l0.1845703-0.0639648l0.1845703-0.059082l0.1875-0.0551758l0.1914063-0.0517578l0.1953125-0.0478516 l0.1953125-0.0419922l0.1992188-0.0390625l0.203125-0.0351563l0.2050781-0.0307617l0.2080078-0.0273438l0.2109375-0.0229492 l0.2128906-0.0180664l0.2177734-0.0136719l0.2216797-0.0112305l0.2216797-0.0078125h0.2265625h0.1640625l0.1621094,0.0039063 L166.75,157.9960938l0.15625,0.0073242l0.1552734,0.0117188l0.1523438,0.0131836l0.1484375,0.0161133l0.1474609,0.0175781 l0.1445313,0.0209961l0.1425781,0.0229492l0.1376953,0.0253906l0.1386719,0.0288086l0.1337891,0.0302734l0.1347656,0.0327148 l0.1279297,0.0351563l0.1269531,0.0371094l0.125,0.0385742l0.1240234,0.0419922l0.1210938,0.043457l0.1181641,0.046875 l0.1162109,0.0478516l0.1152344,0.0512695l0.1103516,0.0527344l0.109375,0.0561523l0.1083984,0.0566406l0.1064453,0.0600586 l0.1015625,0.0610352l0.1015625,0.0639648l0.1005859,0.0664063l0.0966797,0.0698242l0.0947266,0.0708008l0.0908203,0.0712891 l0.1865234,0.1547852l0.1679688,0.1591797l0.1572266,0.1650391l0.1484375,0.1699219l0.1376953,0.1767578l0.1269531,0.1850586 l0.1162109,0.1918945l0.109375,0.1992188l0.0966797,0.2060547l0.0878906,0.2138672l0.078125,0.222168l0.0673828,0.2319336 l0.0595703,0.2412109l0.0488281,0.2490234l0.0371094,0.2578125l0.0283203,0.2739258l0.0058594,0.0761719l0.0048828,0.0795898 l0.0039063,0.0830078l0.0029297,0.0810547v0.0800781v0.0810547v0.0791016l-0.0029297,0.0800781l-0.0019531,0.0800781 l-0.0029297,0.0859375l-0.0058594,0.0839844l-0.0058594,0.0820313l-0.0048828,0.0849609l-0.0048828,0.0820313l-0.0078125,0.0800781 l-0.0087891,0.09375l-0.5078125,7.0908203l0.0019531,0.0322266l-0.0019531,0.0087891l-0.0019531,0.0161133l-0.0058594,0.0551758 l-0.0029297,0.1821289l-0.0019531,0.140625v0.1313477v0.1206055l0.0019531,0.1132813l0.0029297,0.1020508l0.0039063,0.0947266 l0.0078125,0.0981445l0.03125,0.262207l0.0556641,0.2646484l0.0771484,0.2539063l0.1035156,0.2460938l0.1308594,0.2299805 l0.1572266,0.2143555l0.1826172,0.1948242l0.1953125,0.1630859l0.1171875,0.0820313l0.1132813,0.0678711l0.1181641,0.0639648 l0.1191406,0.0581055l0.125,0.0498047l0.1269531,0.046875l0.1308594,0.0390625l0.1328125,0.0380859l0.1367188,0.0292969 l0.1386719,0.0268555c0.8085938,0.1240234,1.6650391,0.0200195,2.4619141-0.1499023l0.8408203-11.2963867h-1.3232422h-0.1435547 l-0.1425781,0.0024414l-0.1425781,0.0039063l-0.1455078,0.0048828l-0.140625,0.0068359l-0.1435547,0.0092773l-0.1416016,0.0117188 l-0.1396484,0.0131836l-0.0439453,0.0048828l0.2324219-3.0688477l0.0107422-0.1401367l0.0107422-0.1240234l0.0136719-0.1166992 l0.0146484-0.1113281l0.0175781-0.1020508l0.0185547-0.0917969l0.0214844-0.0878906l0.0195313-0.0800781l0.0224609-0.0722656 l0.0214844-0.0620117l0.0234375-0.0537109l0.0214844-0.046875l0.0214844-0.0390625l0.0205078-0.03125l0.015625-0.0239258 l0.0068359-0.0078125l0.0449219-0.0449219l0.0458984-0.0332031l0.0595703-0.0341797l0.0810547-0.0327148L175.2910156,158.5 l0.125-0.0239258l0.1503906-0.015625l0.1826172-0.0053711h1.5683594l0.4003906-5.671875l0.0126953-0.1621094l0.0166016-0.1567383 l0.0175781-0.1542969l0.0214844-0.1499023l0.0224609-0.1499023l0.0273438-0.1459961l0.0283203-0.1411133l0.0302734-0.1401367 l0.0361328-0.1386719l0.0371094-0.1342773l0.0380859-0.1308594l0.0410156-0.1279297l0.0458984-0.1269531l0.0449219-0.1230469 l0.0488281-0.1220703l0.0517578-0.1181641l0.0537109-0.1157227l0.0576172-0.1132813l0.0566406-0.1108398l0.0634766-0.1088867 l0.0634766-0.1049805l0.0644531-0.1030273l0.0703125-0.1010742l0.0712891-0.1010742l0.0732422-0.097168l0.0751953-0.09375 l0.0800781-0.0927734l0.0791016-0.0893555l0.0839844-0.0888672l0.0878906-0.0849609l0.0869141-0.0830078l0.0917969-0.0830078 l0.0947266-0.0810547l0.0966797-0.0761719l0.0976563-0.0737305l0.1025391-0.0722656l0.1035156-0.0698242l0.1054688-0.0668945 l0.1074219-0.0639648l0.1123047-0.0639648l0.1152344-0.0600586l0.1142578-0.0581055l0.1181641-0.0551758l0.1210938-0.0507813 l0.125-0.0532227l0.125-0.0458984l0.1298828-0.046875l0.1337891-0.0419922l0.1347656-0.0410156l0.1367188-0.0380859 l0.1396484-0.0371094l0.1445313-0.0327148l0.1455078-0.0292969l0.1494141-0.0288086l0.1484375-0.0239258l0.15625-0.0239258 l0.1591797-0.0209961l0.1591797-0.0161133l0.1630859-0.0151367l0.1679688-0.0141602l0.1679688-0.0087891l0.171875-0.0058594 l0.1738281-0.0039063l0.1777344-0.0024414l0.2753906,0.0024414l0.2646484,0.0068359l0.2558594,0.0117188l0.2470703,0.0151367 l0.2382813,0.019043l0.2265625,0.0239258l0.2177734,0.0268555l0.2109375,0.0322266l0.1972656,0.0371094l0.1884766,0.0400391 l0.1787109,0.0419922l0.1699219,0.0478516l0.1572266,0.0488281l0.1513672,0.0541992l0.1367188,0.0561523l0.1298828,0.059082 l0.1181641,0.0620117l0.109375,0.0639648l0.1015625,0.0629883l0.0898438,0.0649414l0.0800781,0.065918l0.0722656,0.0668945 l0.0625,0.065918l0.0566406,0.0673828l0.046875,0.0698242l0.0429688,0.0678711l0.0361328,0.0712891l0.0302734,0.074707 l0.0263672,0.078125l0.0214844,0.0810547l0.0166016,0.0869141l0.0117188,0.0981445l0.0019531,0.0439453l0.0029297,0.0527344 v0.0532227v0.0551758l-0.0029297,0.0537109l-0.0019531,0.0561523l-0.0048828,0.0556641l-0.0068359,0.059082l-0.0078125,0.0600586 l-0.0107422,0.065918l-0.0107422,0.0683594l-0.0126953,0.0678711l-0.0136719,0.0678711l-0.0146484,0.0668945l-0.0175781,0.0703125 l-0.0175781,0.0668945l-0.6660156,2.1479492l-0.0888672-0.0390625l-0.1328125-0.0537109l-0.1289063-0.0483398l-0.1308594-0.0458984 l-0.1298828-0.0390625l-0.1279297-0.0351563l-0.1279297-0.0268555l-0.1269531-0.0219727l-0.125-0.0180664l-0.1259766-0.0097656 l-0.1337891-0.0029297l-0.2460938,0.0126953l-0.2548828,0.0449219l-0.2441406,0.0771484l-0.2363281,0.1069336l-0.21875,0.1381836 l-0.2001953,0.1660156l-0.1767578,0.1850586l-0.1542969,0.1987305l-0.0761719,0.1162109l-0.0664063,0.1108398l-0.0625,0.1142578 l-0.0556641,0.1186523l-0.0537109,0.1210938l-0.0498047,0.1240234l-0.0449219,0.1269531l-0.0410156,0.1313477l-0.0380859,0.1318359 l-0.0351563,0.1386719l-0.03125,0.1391602l-0.0263672,0.144043l-0.0244141,0.1450195l-0.0214844,0.1499023l-0.0166016,0.1533203 l-0.0136719,0.152832l-0.2763672,3.402832C186.6777344,159.0180664,190.6220703,158.3823242,193.8945313,157.9960938 M141.1308594,162.6083984l-0.2480469,0.0126953l-0.2519531,0.0380859l-0.2441406,0.065918l-0.2392578,0.0878906 l-0.2314453,0.1113281l-0.2216797,0.1347656l-0.2148438,0.1499023l-0.2060547,0.1694336l-0.1982422,0.1879883l-0.1923828,0.2055664 l-0.1865234,0.2202148l-0.1826172,0.237793l-0.1757813,0.2543945l-0.171875,0.2709961l-0.1699219,0.2866211l-0.1640625,0.3022461 L137.75,165.5024414l-0.078125,0.1577148l-0.0761719,0.1582031l-0.0703125,0.1586914l-0.0703125,0.1611328l-0.0664063,0.1591797 l-0.0625,0.1616211l-0.0605469,0.1621094l-0.0546875,0.1630859l-0.0556641,0.1621094l-0.0517578,0.1650391l-0.046875,0.1640625 l-0.0449219,0.1650391l-0.0429688,0.1655273l-0.0390625,0.1669922l-0.0361328,0.1650391l-0.0322266,0.1704102l-0.0292969,0.1669922 l-0.0273438,0.1689453l-0.0234375,0.1689453l-0.0195313,0.1708984l-0.0175781,0.1708984l-0.0136719,0.1679688l-0.0117188,0.1733398 l-0.0097656,0.171875l-0.0039063,0.171875l-0.0019531,0.1708984l0.0009766,0.1743164l0.0029297,0.1738281l0.0078125,0.1728516 l0.0097656,0.1733398l0.0126953,0.1767578L136.75,170.8120117l0.015625,0.1293945l0.0185547,0.1269531l0.0205078,0.125 l0.0244141,0.1196289l0.0292969,0.1191406l0.0302734,0.1162109l0.0351563,0.1157227l0.0371094,0.1132813l0.0429688,0.1088867 l0.046875,0.1069336l0.0488281,0.105957l0.0556641,0.1010742l0.0595703,0.1000977l0.0634766,0.0947266l0.0771484,0.105957 l0.1523438,0.1704102l0.1757813,0.1567383l0.1894531,0.1333008l0.2089844,0.1118164l0.21875,0.0849609l0.2255859,0.059082 L138.7578125,173.25l0.2294922,0.0112305l0.1396484-0.0039063l0.1308594-0.0102539l0.1308594-0.0209961l0.1308594-0.0239258 l0.1289063-0.0361328l0.125-0.0375977l0.1240234-0.0463867l0.1210938-0.0527344l0.1201172-0.0610352l0.1152344-0.0649414 l0.1132813-0.0712891l0.1103516-0.0766602l0.1103516-0.0810547l0.1035156-0.0869141l0.1035156-0.0913086l0.1044922-0.0981445 L141,172.2944336l0.09375-0.1074219l0.0947266-0.1098633l0.0878906-0.1118164l0.0869141-0.1171875l0.0830078-0.1210938 l0.0830078-0.1259766l0.0791016-0.1269531l0.0751953-0.1328125l0.0742188-0.1352539l0.0703125-0.1396484l0.0683594-0.1420898 l0.0664063-0.1459961l0.0634766-0.1489258l0.0615234-0.1552734l0.0566406-0.1538086l0.0683594-0.1879883l0.0654297-0.1879883 l0.0634766-0.1870117l0.0585938-0.1870117l0.0585938-0.1879883l0.0566406-0.1870117l0.0537109-0.1879883l0.0507813-0.1889648 l0.0498047-0.1879883l0.0488281-0.1870117l0.0429688-0.1899414l0.0429688-0.1894531l0.0390625-0.1899414l0.0390625-0.1870117 l0.0371094-0.1899414l0.0322266-0.1870117l0.0322266-0.1879883l0.0273438-0.1831055l0.0273438-0.1796875l0.0224609-0.1772461 l0.0205078-0.1728516l0.0195313-0.1699219l0.0146484-0.1699219l0.0146484-0.1630859l0.0097656-0.1611328l0.0068359-0.159668 l0.0039063-0.1552734l0.0029297-0.1547852v-0.1494141l-0.0048828-0.1489258l-0.0087891-0.1469727l-0.0097656-0.1459961 l-0.0224609-0.2041016l-0.0351563-0.2036133l-0.0449219-0.1962891l-0.0595703-0.1899414l-0.0732422-0.1811523l-0.0869141-0.1757813 l-0.1054688-0.1650391l-0.1210938-0.1557617l-0.1416016-0.144043l-0.1601563-0.1259766l-0.1728516-0.109375l-0.1835938-0.0839844 l-0.1914063-0.0639648l-0.1972656-0.0449219l-0.1992188-0.0249023L141.1308594,162.6083984z M140.7792969,177.2099609 l-0.1796875,0.0673828l-0.1777344,0.0620117l-0.1845703,0.0576172l-0.1884766,0.0522461l-0.1904297,0.046875l-0.1962891,0.0429688 l-0.1972656,0.0380859l-0.2050781,0.0332031l-0.2070313,0.0268555l-0.2089844,0.0239258l-0.2148438,0.019043l-0.21875,0.012207 l-0.2226563,0.0078125l-0.2246094,0.0019531l-0.1748047-0.0019531l-0.1728516-0.0068359l-0.171875-0.0092773l-0.1689453-0.0146484 l-0.1669922-0.0180664l-0.1640625-0.0219727l-0.1660156-0.0273438l-0.1621094-0.0297852l-0.1601563-0.0332031l-0.1582031-0.0400391 l-0.1582031-0.0429688l-0.1552734-0.0449219l-0.1542969-0.0517578l-0.1552734-0.0541992l-0.1494141-0.059082l-0.1513672-0.0620117 l-0.1484375-0.0678711l-0.1474609-0.0698242l-0.1455078-0.0751953l-0.1464844-0.078125l-0.1425781-0.0839844L134.5,176.7202148 l-0.1416016-0.0908203l-0.1396484-0.0952148l-0.1396484-0.1010742l-0.1376953-0.1040039l-0.1367188-0.1098633l-0.1367188-0.1142578 l-0.1347656-0.1166992l-0.1328125-0.1220703l-0.1347656-0.1279297l-0.1308594-0.1308594l-0.1269531-0.1352539l-0.125-0.1357422 l-0.1230469-0.1381836l-0.1162109-0.1391602l-0.1142578-0.1430664l-0.109375-0.144043l-0.1074219-0.1459961l-0.1035156-0.1479492 l-0.0986328-0.1499023l-0.0966797-0.1538086l-0.09375-0.15625l-0.0898438-0.1557617l-0.0849609-0.1591797l-0.0820313-0.1630859 L131.5859375,173.375l-0.078125-0.1645508l-0.0693359-0.1694336l-0.0703125-0.1699219l-0.0634766-0.1738281l-0.0634766-0.1772461 l-0.0556641-0.1777344l-0.0546875-0.1821289l-0.0517578-0.1821289l-0.0478516-0.1860352l-0.0429688-0.1889648l-0.0410156-0.190918 l-0.0371094-0.1928711l-0.03125-0.1962891l-0.03125-0.199707l-0.0273438-0.2001953l-0.0214844-0.2036133l-0.0195313-0.2080078 l-0.0097656-0.1313477l-0.0097656-0.1328125l-0.0058594-0.1342773l-0.0087891-0.1318359l-0.0048828-0.1308594l-0.0039063-0.1318359 l-0.0019531-0.1333008l-0.0029297-0.1308594v-0.1313477l0.0009766-0.1308594l0.0029297-0.1298828l0.0019531-0.1308594 l0.0039063-0.1289063l0.0068359-0.1303711l0.0078125-0.1289063l0.0078125-0.1289063l0.0107422-0.1289063l0.0107422-0.1293945 l0.0117188-0.1279297l0.0136719-0.1279297l0.0146484-0.1279297l0.0166016-0.1269531l0.0166016-0.1259766l0.0185547-0.1279297 l0.0195313-0.1269531l0.0195313-0.1259766l0.0244141-0.1259766l0.0224609-0.1269531l0.0244141-0.125l0.0263672-0.1230469 l0.0273438-0.128418l0.0263672-0.1196289l0.0615234-0.2470703l0.0664063-0.2431641l0.0703125-0.2416992l0.0742188-0.2363281 l0.078125-0.2358398l0.0859375-0.2319336l0.0878906-0.2250977l0.0917969-0.2260742l0.0976563-0.2231445l0.1015625-0.2177734 l0.1074219-0.2158203l0.1113281-0.2133789l0.1152344-0.2099609l0.1210938-0.2050781l0.125-0.2036133l0.1328125-0.2021484 l0.1738281-0.2641602l0.1748047-0.2509766l0.1806641-0.2407227l0.1865234-0.2363281l0.1904297-0.2290039l0.1972656-0.2197266 l0.2021484-0.215332l0.2080078-0.2055664l0.2119141-0.2001953l0.2177734-0.190918l0.2246094-0.1860352l0.2294922-0.1791992 l0.2353516-0.1708984l0.2402344-0.1650391l0.2480469-0.1601563l0.2539063-0.1518555l0.1269531-0.0708008l0.1269531-0.0712891 l0.1298828-0.0688477l0.1289063-0.065918l0.1298828-0.0620117l0.1279297-0.0629883l0.1289063-0.059082l0.1318359-0.0551758 l0.1269531-0.0537109l0.1308594-0.0522461l0.1289063-0.0488281l0.1318359-0.046875l0.1298828-0.0463867l0.1298828-0.0429688 l0.1308594-0.0410156l0.1318359-0.0356445l0.1308594-0.0361328l0.1328125-0.0332031l0.1298828-0.0307617l0.1328125-0.0288086 l0.1337891-0.0263672l0.1328125-0.0229492l0.1308594-0.0229492l0.1357422-0.0180664l0.1328125-0.0180664l0.1347656-0.0146484 l0.1337891-0.012207l0.1347656-0.0107422l0.1357422-0.0083008l0.1357422-0.0058594l0.1367188-0.0039063l0.1367188-0.0009766 l0.171875,0.0009766l0.1669922,0.0058594l0.1630859,0.0068359l0.1601563,0.0112305l0.15625,0.0117188l0.1503906,0.0170898 l0.1484375,0.0209961l0.1455078,0.0209961l0.1435547,0.0249023l0.1376953,0.0273438l0.1337891,0.0307617l0.1298828,0.0341797 l0.1269531,0.0351563l0.1230469,0.0385742l0.1201172,0.0390625l0.1171875,0.0449219l0.1171875,0.0483398l0.1152344,0.0498047 l0.1142578,0.0551758l0.1123047,0.0556641l0.1132813,0.0600586l0.1103516,0.0639648l0.1103516,0.0683594l0.109375,0.0717773 l0.1103516,0.0742188l0.1064453,0.0800781l0.109375,0.081543l0.1064453,0.0864258l0.1064453,0.0888672l0.1044922,0.0927734 l0.1044922,0.0981445l0.8925781,0.8730469l0.4882813-1.1708984l0.0615234-0.125l0.0615234-0.1079102l0.0595703-0.0922852 l0.0595703-0.074707l0.0546875-0.0629883l0.0556641-0.050293l0.0517578-0.0390625l0.0117188-0.0078125l0.0244141-0.012207 l0.0322266-0.0170898l0.0361328-0.0136719l0.0429688-0.0161133l0.046875-0.0161133l0.0507813-0.0117188l0.0576172-0.0151367 l0.0644531-0.0131836l0.0683594-0.0097656l0.0742188-0.0092773l0.078125-0.0087891l0.0859375-0.0068359l0.0878906-0.0043945 l0.0927734-0.0029297l0.1025391-0.0009766h3.4277344l-0.0722656,0.203125l-0.0712891,0.2080078l-0.0693359,0.2070313 l-0.0703125,0.2080078l-0.0673828,0.2099609l-0.0654297,0.2109375l-0.0654297,0.2109375l-0.0634766,0.2109375l-0.0605469,0.2114258 l-0.0605469,0.2128906l-0.0595703,0.2128906l-0.0576172,0.2158203l-0.0546875,0.215332l-0.0546875,0.2158203l-0.0537109,0.2158203 l-0.0517578,0.2172852l-0.0488281,0.21875l-0.0507813,0.2192383l-0.046875,0.21875l-0.0458984,0.222168l-0.0458984,0.2202148 l-0.0419922,0.2226563l-0.0410156,0.222168l-0.0410156,0.2241211l-0.0400391,0.2226563l-0.0371094,0.2250977l-0.0371094,0.2270508 l-0.0361328,0.2260742l-0.0322266,0.2241211L148.7246094,165l-0.0302734,0.2250977l-0.0283203,0.2211914l-0.0273438,0.2207031 l-0.0253906,0.2211914l-0.0234375,0.2202148l-0.0214844,0.2177734l-0.0214844,0.2182617l-0.0175781,0.2167969l-0.0175781,0.2177734 l-0.015625,0.2163086l-0.015625,0.2148438l-0.0097656,0.2138672l-0.0117188,0.2133789l-0.0097656,0.2128906l-0.0068359,0.2109375 l-0.0058594,0.2109375l-0.0048828,0.2099609l-0.0019531,0.2089844v0.2080078v0.2080078l0.0019531,0.2070313l0.0048828,0.2060547 l0.0058594,0.2050781l0.0068359,0.2041016l0.0097656,0.2026367l0.0117188,0.203125l0.0097656,0.2011719l0.015625,0.199707 l0.015625,0.2050781l0.0205078,0.2128906l0.0244141,0.2099609l0.0332031,0.2050781l0.0371094,0.2011719l0.0429688,0.1938477 l0.0488281,0.1889648l0.0537109,0.184082l0.0615234,0.1801758l0.0683594,0.171875l0.0722656,0.1669922l0.0820313,0.1621094 l0.0908203,0.1567383l0.0966797,0.1494141l0.1054688,0.1416016l0.1113281,0.1362305l0.1210938,0.1269531l0.125,0.1191406 l0.1328125,0.1088867l0.1416016,0.1030273l0.1455078,0.0947266l0.1552734,0.0864258l0.1591797,0.0776367l0.1640625,0.0683594 l0.1689453,0.0620117l0.1748047,0.0537109l0.1796875,0.0439453l0.1816406,0.0390625l0.1865234,0.0302734l0.1923828,0.0239258 l0.1953125,0.0170898l0.0332031,0.0009766l-0.03125,0.1337891l-0.0488281,0.2119141l-0.0585938,0.2021484l-0.0625,0.1928711 l-0.0673828,0.1811523l-0.0732422,0.1748047L151.5,176.1181641l-0.0820313,0.1547852l-0.0859375,0.1464844l-0.0908203,0.1357422 l-0.09375,0.1298828l-0.0986328,0.1191406l-0.1025391,0.1137695l-0.1083984,0.1049805l-0.1113281,0.1000977l-0.1191406,0.0913086 l-0.1220703,0.0839844l-0.1298828,0.0800781l-0.1347656,0.0717773l-0.1386719,0.0649414l-0.1503906,0.059082l-0.1533203,0.0541992 l-0.1630859,0.0458984l-0.1699219,0.0410156l-0.1777344,0.0327148l-0.1855469,0.0263672l-0.1933594,0.0175781l-0.203125,0.012207 l-0.2109375,0.0039063l-0.1484375-0.0029297l-0.1445313-0.0068359l-0.1435547-0.0131836l-0.140625-0.0170898l-0.1357422-0.0229492 L147.625,177.7192383l-0.1328125-0.0322266l-0.1328125-0.0356445l-0.1279297-0.0410156l-0.1289063-0.0463867l-0.125-0.0507813 l-0.1230469-0.0561523l-0.1230469-0.0600586l-0.1210938-0.065918l-0.1201172-0.0688477l-0.1171875-0.0751953l-0.1132813-0.0776367 l-0.1132813-0.0874023l-0.1142578-0.0898438l-0.1103516-0.0981445l-0.1132813-0.1015625l-0.1103516-0.1064453l-0.1103516-0.1157227 l-0.1083984-0.1191406l-0.1074219-0.1269531l-0.1083984-0.1318359l-0.1044922-0.1381836l-0.1025391-0.144043l-0.1035156-0.1489258 l-0.1035156-0.1567383L144.75,175.3823242l-0.6679688-1.1298828l-0.796875,1.0537109l-0.1220703,0.152832l-0.1279297,0.1484375 l-0.1289063,0.1450195l-0.1308594,0.1357422l-0.1367188,0.1318359l-0.1367188,0.1279297l-0.1416016,0.1220703l-0.1455078,0.1171875 l-0.1464844,0.1118164l-0.1503906,0.1049805l-0.1542969,0.1030273l-0.15625,0.097168l-0.1611328,0.0908203l-0.1621094,0.0883789 l-0.1650391,0.0805664l-0.1669922,0.0751953L140.7792969,177.2099609z M237.3496094,173.0771484 c-0.1083984,1.4082031-0.2558594,2.8120117-0.4658203,4.2109375c-1.1435547,7.4819336-5.4570313,9.8369141-9.2167969,9.8369141 c1.6191406-2.371582,3.0380859-7.0258789,3.5087891-9.8359375l0.0517578-0.3227539l0.0341797-0.2250977l0.0322266-0.2270508 l0.0175781-0.1318359l-0.0566406,0.0400391l-0.1630859,0.1049805l-0.1621094,0.1010742l-0.1669922,0.0957031l-0.1660156,0.0913086 l-0.1699219,0.0878906l-0.1689453,0.0820313l-0.1748047,0.0800781l-0.1728516,0.0737305l-0.1767578,0.0688477l-0.1816406,0.0683594 l-0.1835938,0.0629883l-0.1845703,0.0585938l-0.1875,0.0551758l-0.1914063,0.0512695l-0.1953125,0.0478516l-0.1962891,0.0419922 l-0.1982422,0.0400391l-0.2021484,0.0336914l-0.2080078,0.0322266l-0.2080078,0.0268555l-0.2089844,0.0219727l-0.2138672,0.019043 l-0.21875,0.0151367l-0.2197266,0.0087891l-0.2216797,0.0073242l-0.2275391,0.0019531l-0.1621094-0.0019531l-0.1630859-0.0039063 l-0.1591797-0.0053711l-0.1552734-0.0078125l-0.1542969-0.012207l-0.1533203-0.0126953l-0.1494141-0.0161133l-0.1464844-0.019043 l-0.1445313-0.0209961l-0.140625-0.0219727l-0.140625-0.0249023l-0.1376953-0.0302734l-0.1337891-0.0297852l-0.1337891-0.0341797 l-0.1289063-0.0336914l-0.1269531-0.0361328l-0.1269531-0.0400391l-0.1220703-0.0419922l-0.1210938-0.0429688l-0.1181641-0.046875 l-0.1162109-0.0493164l-0.1142578-0.0498047l-0.1132813-0.0532227l-0.1083984-0.0537109l-0.1083984-0.059082l-0.1044922-0.059082 l-0.1015625-0.0610352l-0.1025391-0.0649414l-0.0996094-0.065918l-0.0976563-0.0698242l-0.0957031-0.0703125l-0.0888672-0.0717773 l-0.1865234-0.15625l-0.1689453-0.1567383l-0.1582031-0.1650391l-0.1494141-0.1733398l-0.1357422-0.1748047l-0.1269531-0.1850586 l-0.1152344-0.190918l-0.109375-0.1992188l-0.0976563-0.2055664l-0.0859375-0.215332l-0.0800781-0.2216797l-0.0673828-0.2324219 l-0.0595703-0.2397461l-0.0478516-0.25l-0.0380859-0.2578125l-0.0283203-0.2744141l-0.0048828-0.0737305l-0.0078125-0.0830078 l-0.0019531-0.0810547l-0.0029297-0.0800781v-0.0820313l-0.0019531-0.0800781l0.0019531-0.0795898l0.0029297-0.0800781v-0.0810547 l0.0058594-0.0849609l0.0039063-0.0830078l0.0048828-0.0830078l0.0068359-0.0830078l0.0058594-0.0830078l0.0068359-0.0820313 l0.0087891-0.0922852l0.5087891-7.0898438v-0.0317383v-0.0112305l0.0009766-0.0151367l0.0058594-0.0556641l0.0039063-0.1811523 l0.0009766-0.1411133v-0.1328125v-0.1201172l-0.0009766-0.112793l-0.0039063-0.1010742l-0.0058594-0.0961914l-0.0048828-0.0976563 l-0.0322266-0.2612305l-0.0537109-0.2641602l-0.0810547-0.2558594l-0.1015625-0.2451172l-0.1308594-0.230957l-0.1572266-0.2138672 l-0.1816406-0.1938477l-0.1972656-0.1621094l-0.1162109-0.0830078l-0.1142578-0.0668945l-0.1162109-0.0654297l-0.1220703-0.0566406 l-0.1230469-0.0522461l-0.1269531-0.0458984l-0.1308594-0.0400391l-0.1337891-0.0361328l-0.1337891-0.0307617l-0.140625-0.027832 l-0.140625-0.0209961l-0.1464844-0.0180664l-0.1464844-0.0131836l-0.1523438-0.0097656l-0.0791016-0.0024414l0.5332031-1.8637695 c0.3271484-1.1210938,1.1054688-1.5859375,2.6328125-1.5439453l0.1513672,0.0068359l0.1494141,0.0083008l0.1464844,0.0117188 l0.1445313,0.0151367l0.1425781,0.0170898l0.1416016,0.019043l0.1376953,0.0229492l0.1396484,0.0239258l0.1357422,0.027832 l0.1328125,0.0302734l0.1318359,0.0307617l0.1289063,0.0361328l0.1289063,0.0371094l0.1279297,0.0375977l0.1220703,0.0419922 l0.1240234,0.0463867l0.1220703,0.046875l0.1191406,0.0488281l0.1181641,0.0522461l0.1162109,0.0537109l0.1142578,0.059082 l0.1132813,0.059082l0.1123047,0.0610352l0.1103516,0.0649414l0.1074219,0.065918l0.1074219,0.0703125l0.1054688,0.0717773 l0.1035156,0.0751953l0.1025391,0.0766602l0.0957031,0.0761719l0.1953125,0.1660156l0.1826172,0.1708984l0.1699219,0.1743164 l0.1582031,0.1796875l0.1435547,0.1821289l0.1367188,0.1889648l0.1210938,0.1928711l0.1132813,0.1962891l0.0976563,0.2016602 l0.0917969,0.2070313l0.0800781,0.2163086l0.0703125,0.2197266l0.0566406,0.2260742l0.0488281,0.2348633l0.0371094,0.2402344 l0.0273438,0.2519531l0.0048828,0.0639648l0.0039063,0.0732422l0.0039063,0.0766602l0.0039063,0.0800781l0.0009766,0.0830078 l0.0019531,0.0878906v0.0913086v0.0957031v0.097168l-0.0019531,0.1020508l-0.0039063,0.105957l-0.0029297,0.1069336 l-0.0039063,0.1132813l-0.0068359,0.1157227l-0.0058594,0.1191406l-0.0068359,0.1357422l-0.0019531,0.090332l-0.0019531,0.0717773 l-0.0029297,0.1171875l-0.0039063,0.0537109l-0.0039063,0.050293l-0.0009766,0.0498047v0.0341797l-0.4990234,6.6137695 l-0.0029297,0.0102539l-0.0029297,0.0288086l-0.0039063,0.0288086l-0.0039063,0.0283203l-0.0029297,0.0336914l-0.0019531,0.0390625 l-0.0029297,0.0410156l-0.0019531,0.0419922l-0.0019531,0.0410156l0.0019531,0.0419922l0.0019531,0.0419922l0.0009766,0.0322266 l0.0019531,0.0317383l0.0019531,0.0361328l0.0029297,0.027832l0.0029297,0.0380859l0.0175781,0.1411133l0.0263672,0.1508789 l0.0390625,0.1499023l0.0556641,0.1494141l0.0664063,0.1425781l0.0820313,0.1391602l0.0966797,0.1308594l0.1142578,0.1210938 l0.1269531,0.1103516l0.1396484,0.0908203l0.1484375,0.0761719l0.1533203,0.0585938l0.15625,0.0444336l0.1572266,0.0297852 l0.1601563,0.0161133l0.15625,0.0048828l0.1923828-0.0039063l0.1855469-0.0102539l0.1855469-0.0209961l0.1806641-0.027832 l0.1796875-0.0351563l0.1787109-0.0439453l0.1738281-0.0507813l0.1708984-0.0610352l0.1660156-0.0668945l0.1660156-0.078125 l0.1601563-0.0839844l0.1552734-0.0922852l0.1513672-0.0996094l0.1474609-0.1083984l0.1425781-0.1137695l0.1396484-0.1230469 l0.1328125-0.1289063l0.1269531-0.1342773l0.1191406-0.140625l0.1113281-0.1450195l0.1054688-0.1503906l0.0986328-0.1557617 l0.0888672-0.1591797l0.0820313-0.1640625l0.0742188-0.1679688l0.0654297-0.171875l0.0595703-0.1767578l0.0517578-0.1782227 l0.0429688-0.1831055L231.8955078,170l0.0283203-0.1899414l0.0214844-0.1899414l0.8193359-11.1230469h5.7060547 C238.1025391,163.3271484,237.7167969,168.3183594,237.3496094,173.0771484 M206.8193359,171.0180664l0.0410156,0.1469727 l0.0488281,0.144043l0.0517578,0.1420898l0.0585938,0.1362305l0.0644531,0.1318359l0.0722656,0.1318359l0.0761719,0.1240234 l0.0820313,0.1201172l0.0898438,0.1152344l0.0966797,0.1108398l0.1015625,0.1049805l0.1074219,0.0957031l0.109375,0.0922852 l0.1171875,0.0878906l0.1240234,0.0800781l0.1269531,0.0737305l0.1328125,0.0673828l0.1337891,0.059082l0.1386719,0.0537109 l0.1416016,0.046875l0.1435547,0.0410156l0.1484375,0.0361328l0.1503906,0.0302734l0.1552734,0.0229492l0.15625,0.0166016 l0.15625,0.0141602L209.8066406,173.25l0.1660156,0.0043945L210.1533203,173.25l0.1816406-0.0078125l0.1865234-0.0161133 l0.1894531-0.0209961l0.1894531-0.0258789l0.1953125-0.0332031l0.1943359-0.0366211l0.2001953-0.0454102l0.2011719-0.0478516 l0.2050781-0.0546875l0.2080078-0.0610352l0.2089844-0.0649414l0.2119141-0.0722656l0.2158203-0.0771484l0.2177734-0.0810547 l0.2216797-0.0869141l0.2197266-0.0898438l0.2255859-0.097168l0.2265625-0.1000977l0.2314453-0.105957l0.2324219-0.1108398 l0.2363281-0.1162109l0.2373047-0.1176758l0.2412109-0.1240234l0.2460938-0.1308594l0.2451172-0.1342773l0.25-0.1401367 l0.0263672-0.0146484l-0.1572266,1.8266602l-0.0175781,0.1982422l-0.0175781,0.1889648l-0.0205078,0.1821289l-0.0195313,0.1728516 l-0.0195313,0.1650391l-0.0214844,0.1572266l-0.0234375,0.1499023l-0.0234375,0.1411133l-0.0234375,0.1318359l-0.0244141,0.125 l-0.0253906,0.1157227l-0.0244141,0.105957l-0.0273438,0.097168l-0.0263672,0.0888672l-0.0253906,0.0791016l-0.0273438,0.0703125 l-0.0605469,0.1479492l-0.0634766,0.1308594l-0.0683594,0.1259766l-0.0742188,0.1171875l-0.0820313,0.1098633l-0.0908203,0.105957 l-0.0966797,0.1000977l-0.1162109,0.105957l-0.1005859,0.0849609l-0.1035156,0.0839844l-0.1103516,0.0810547l-0.1123047,0.0810547 l-0.1181641,0.078125l-0.1259766,0.0766602l-0.1298828,0.0751953l-0.1347656,0.0727539l-0.1396484,0.0712891l-0.1484375,0.0688477 l-0.1494141,0.065918l-0.1572266,0.0649414l-0.1611328,0.0629883l-0.1699219,0.0620117l-0.1738281,0.0581055l-0.1787109,0.0561523 l-0.1826172,0.0527344l-0.1855469,0.050293l-0.1894531,0.0449219l-0.1923828,0.0439453l-0.1904297,0.0390625l-0.1972656,0.0361328 l-0.1962891,0.0317383l-0.2011719,0.0302734l-0.2011719,0.0249023l-0.2050781,0.0229492l-0.2060547,0.0180664l-0.2099609,0.015625 l-0.2109375,0.012207l-0.2128906,0.0078125l-0.2158203,0.0063477l-0.2207031,0.0009766l-0.2255859-0.0009766L208.7421875,177.75 l-0.2197266-0.0107422l-0.21875-0.0151367l-0.2148438-0.0180664l-0.2109375-0.0239258l-0.2089844-0.0268555l-0.2041016-0.03125 l-0.2021484-0.0366211l-0.2001953-0.0390625l-0.1962891-0.0449219l-0.1904297-0.0473633l-0.1943359-0.0517578l-0.1855469-0.0571289 l-0.1865234-0.059082l-0.1826172-0.0639648l-0.1787109-0.0678711l-0.1767578-0.0732422l-0.1738281-0.0766602l-0.171875-0.0800781 l-0.1679688-0.0849609l-0.1660156-0.0888672l-0.1630859-0.0922852l-0.1621094-0.0981445l-0.1582031-0.0996094l-0.1552734-0.1064453 l-0.1542969-0.1088867l-0.1513672-0.1137695l-0.1484375-0.1181641l-0.1445313-0.1220703l-0.1455078-0.1259766l-0.1416016-0.1298828 L203.2285156,175.5l-0.1367188-0.1357422l-0.1318359-0.1411133l-0.1269531-0.1430664l-0.1240234-0.1450195l-0.1191406-0.1479492 l-0.1162109-0.1508789l-0.1113281-0.15625l-0.109375-0.1557617l-0.1035156-0.1601563l-0.0986328-0.1650391l-0.0996094-0.1635742 l-0.0927734-0.1713867l-0.0898438-0.1708984l-0.0859375-0.1738281l-0.0820313-0.1791992l-0.0791016-0.1821289l-0.0732422-0.1850586 l-0.0712891-0.1875l-0.0664063-0.1914063l-0.0634766-0.1948242l-0.0615234-0.1982422l-0.0527344-0.2006836l-0.0546875-0.203125 l-0.0478516-0.2080078l-0.0449219-0.2109375l-0.0390625-0.2148438l-0.0380859-0.2182617l-0.0322266-0.2197266l-0.0292969-0.2250977 l-0.0253906-0.2280273l-0.0224609-0.2329102l-0.0107422-0.1459961l-0.0078125-0.1469727l-0.0097656-0.1469727l-0.0068359-0.1459961 l-0.0039063-0.144043l-0.0019531-0.1459961v-0.144043v-0.144043l0.0019531-0.1459961l0.0039063-0.1411133l0.0048828-0.1420898 l0.0117188-0.1430664l0.0078125-0.140625l0.0107422-0.1420898l0.0136719-0.1401367l0.015625-0.1420898l0.015625-0.1401367 l0.0185547-0.1376953l0.0205078-0.1420898l0.0205078-0.1391602l0.0253906-0.1367188l0.0244141-0.1391602l0.0273438-0.1376953 l0.0283203-0.137207l0.0302734-0.1381836l0.0322266-0.1376953l0.0341797-0.1352539l0.0361328-0.1367188l0.0371094-0.1352539 l0.0390625-0.1347656l0.0429688-0.1352539l0.0410156-0.1337891l0.0449219-0.1342773l0.0458984-0.1328125l0.0488281-0.1328125 l0.0488281-0.1313477l0.0507813-0.1308594l0.0527344-0.1298828l0.0537109-0.1279297l0.0556641-0.1293945l0.0566406-0.1279297 l0.0595703-0.1259766l0.0585938-0.125l0.0625-0.125l0.0644531-0.1240234l0.0644531-0.125l0.0664063-0.1206055l0.0673828-0.1240234 l0.0703125-0.1210938l0.0712891-0.1201172l0.0712891-0.1191406l0.0751953-0.1186523l0.0771484-0.1181641l0.0771484-0.1181641 l0.078125-0.1147461l0.0810547-0.1162109l0.0820313-0.1157227l0.0839844-0.1142578l0.0839844-0.1118164l0.0878906-0.1142578 l0.0869141-0.1118164l0.0898438-0.1108398l0.0927734-0.1113281l0.0917969-0.1079102l0.1855469-0.2099609l0.1894531-0.2021484 l0.1894531-0.1958008l0.1972656-0.1889648l0.1982422-0.1831055l0.2041016-0.1767578l0.2060547-0.1694336l0.2099609-0.1625977 l0.2167969-0.1582031l0.21875-0.1518555l0.2226563-0.144043l0.2255859-0.1401367l0.2324219-0.1318359l0.2363281-0.1269531 l0.2392578-0.1201172l0.2470703-0.1162109l0.1201172-0.0537109l0.1230469-0.0541992l0.1240234-0.0517578l0.125-0.0483398 l0.125-0.0478516l0.125-0.046875l0.1269531-0.0419922l0.1269531-0.0439453l0.1269531-0.0410156l0.1298828-0.0390625 l0.1259766-0.0361328l0.1308594-0.0371094l0.1289063-0.0336914l0.1298828-0.0302734l0.1308594-0.0317383l0.1328125-0.0283203 l0.1337891-0.027832l0.1308594-0.0239258l0.1337891-0.0249023l0.1347656-0.0209961l0.1337891-0.0209961l0.1367188-0.0161133 l0.1347656-0.0180664l0.1357422-0.0141602l0.1396484-0.0126953l0.1376953-0.0112305l0.1396484-0.0107422l0.1376953-0.0063477 l0.140625-0.0068359l0.140625-0.0058594l0.140625-0.0009766h0.1416016h0.1630859l0.1572266,0.0039063l0.1552734,0.0078125 l0.1542969,0.0073242l0.1513672,0.0117188l0.1503906,0.0131836l0.1464844,0.0161133l0.1474609,0.0166016l0.1425781,0.0200195 l0.140625,0.0229492l0.1396484,0.0253906l0.1376953,0.0288086l0.1367188,0.027832l0.1337891,0.0341797l0.1308594,0.0351563 l0.1298828,0.0366211l0.1279297,0.0380859l0.1259766,0.0419922l0.1230469,0.0429688l0.1230469,0.0473633l0.1210938,0.0478516 l0.1162109,0.0498047l0.1171875,0.0541992l0.1171875,0.0541992l0.1103516,0.0576172l0.1123047,0.059082l0.109375,0.0629883 l0.109375,0.0649414l0.1054688,0.0649414l0.1054688,0.0693359l0.1035156,0.0717773l0.0986328,0.0712891l0.1962891,0.1557617 l0.1845703,0.1547852l0.1708984,0.1611328l0.15625,0.1650391l0.1455078,0.1679688l0.1337891,0.1733398l0.1220703,0.1777344 l0.1123047,0.1831055l0.0986328,0.1879883l0.0888672,0.1918945l0.0771484,0.1992188l0.0683594,0.2045898l0.0585938,0.2114258 l0.0449219,0.2177734l0.0371094,0.2241211l0.0253906,0.237793l0.0126953,0.1801758l0.0087891,0.184082v0.1806641 l-0.0019531,0.1791992l-0.0087891,0.1748047l-0.0136719,0.1733398l-0.0205078,0.171875l-0.0234375,0.1679688l-0.0302734,0.1650391 l-0.0322266,0.1640625l-0.0410156,0.1630859l-0.0449219,0.159668l-0.0498047,0.1572266l-0.0556641,0.1557617l-0.0585938,0.1533203 l-0.0664063,0.1538086l-0.0722656,0.1479492l-0.0761719,0.1489258l-0.0810547,0.1459961l-0.0869141,0.1469727l-0.0917969,0.1430664 l-0.0996094,0.1450195l-0.1035156,0.1401367l-0.1074219,0.1391602l-0.1162109,0.1386719l-0.1220703,0.1381836l-0.1269531,0.1337891 l-0.1318359,0.1352539l-0.1376953,0.1318359l-0.1464844,0.1318359l-0.1503906,0.1293945l-0.1572266,0.1289063l-0.1611328,0.1259766 l-0.1669922,0.1230469l-0.1708984,0.1186523l-0.1738281,0.1171875l-0.1787109,0.1142578l-0.1865234,0.1108398l-0.1875,0.1079102 l-0.1914063,0.1030273l-0.1962891,0.1010742l-0.2021484,0.0991211l-0.2050781,0.0947266l-0.2099609,0.0913086l-0.2148438,0.0878906 l-0.2197266,0.0849609l-0.2255859,0.0830078l-0.2265625,0.078125l-0.2333984,0.0756836l-0.2373047,0.0742188l-0.2431641,0.0678711 l-0.2470703,0.0668945l-0.2519531,0.0620117l-0.2539063,0.0600586l-0.2617188,0.0551758l-0.265625,0.0527344l-0.2685547,0.0483398 l-0.2734375,0.046875l-0.2792969,0.0410156l-0.2832031,0.0400391l-0.2871094,0.0371094l-0.2939453,0.0317383l-0.296875,0.0268555 l-1.0869141,0.0932617l0.1269531,0.9238281l0.0263672,0.1572266l0.0332031,0.152832L206.8193359,171.0180664z M206.1542969,167.5180664l1.3925781-0.2836914l0.2919922-0.0649414l0.2822266-0.0722656l0.2773438-0.0810547l0.2705078-0.0839844 l0.2626953-0.0898438l0.2558594-0.0991211l0.2480469-0.1049805l0.2441406-0.1098633l0.2353516-0.1181641l0.2255859-0.125 l0.2216797-0.1308594l0.2148438-0.1391602l0.2050781-0.1450195l0.1992188-0.1518555l0.1884766-0.1582031l0.1796875-0.1630859 l0.1708984-0.1660156l0.1611328-0.1699219l0.1464844-0.1777344l0.1386719-0.1791992l0.125-0.1860352l0.1123047-0.190918 l0.1015625-0.1938477l0.0878906-0.2001953l0.0751953-0.2060547l0.0585938-0.2070313l0.046875-0.2099609l0.0322266-0.2138672 l0.0185547-0.2148438l0.0029297-0.2163086l-0.0107422-0.2236328l-0.0224609-0.1611328l-0.0380859-0.1640625l-0.0556641-0.1611328 l-0.0712891-0.1518555l-0.0878906-0.144043l-0.1015625-0.1328125l-0.109375-0.1210938l-0.1289063-0.1162109l-0.1396484-0.1020508 l-0.1425781-0.0830078l-0.1523438-0.0698242l-0.1552734-0.0581055l-0.1611328-0.0439453l-0.1630859-0.0297852l-0.1660156-0.0170898 l-0.1699219-0.0048828l-0.1972656,0.0048828l-0.1953125,0.0239258l-0.1972656,0.0390625L209.96875,161l-0.1875,0.0664063 l-0.1845703,0.0795898l-0.1826172,0.0942383l-0.1728516,0.1049805l-0.1699219,0.1137695l-0.1689453,0.1293945l-0.1601563,0.1376953 l-0.1591797,0.1459961l-0.1552734,0.1601563l-0.1523438,0.1679688l-0.1494141,0.1791992l-0.1494141,0.1889648l-0.1435547,0.1987305 l-0.1357422,0.2021484l-0.1328125,0.2089844l-0.1240234,0.2167969l-0.1201172,0.2202148l-0.1152344,0.2290039l-0.1074219,0.230957 l-0.1005859,0.237793l-0.0976563,0.2441406l-0.0908203,0.2509766l-0.0839844,0.2529297l-0.0810547,0.262207l-0.0751953,0.2661133 l-0.0673828,0.2719727l-0.0625,0.2768555L206.1542969,167.5180664z"></path> <path fill-rule="evenodd" clip-rule="evenodd" fill="#E96506" d="M166.7568359,135.4267578 c22.7314453,0,42.7363281,6.0683594,53.9746094,15.1542969l0.2705078-0.0102539l0.5820313,0.0039063l0.3349609,0.0141602 l0.2900391,0.0161133l0.3076172,0.0249023l0.296875,0.0288086l0.2714844,0.0332031l0.3144531,0.0419922l0.2617188,0.046875 l0.2607422,0.0429688l0.3183594,0.0664063l0.2470703,0.0537109l0.3183594,0.0771484l0.2822266,0.078125l0.2470703,0.0698242 l0.2949219,0.0908203l0.296875,0.1010742l0.1660156,0.0600586l0.0400391-0.3398438h14.7275391 c-9.1728516-16.9799805-41.6484375-26.9091797-78.5576172-22.7041016 c-16.4521484,1.875-31.4150391,6.2861328-43.4003906,12.2509766l0.0800781-0.0170898l0.3398438-0.0668945l0.3583984-0.0629883 l0.3681641-0.0561523l0.3808594-0.0488281l0.3574219-0.0371094l0.3496094-0.0317383l0.3681641-0.0263672l0.3798828-0.0166016 l0.3632813-0.0102539l0.3447266-0.0019531l0.2646484,0.0019531l0.2929688,0.0048828l0.3076172,0.012207l0.2587891,0.0161133 l0.2460938,0.0166016l0.3066406,0.0253906l0.3232422,0.0366211l0.2392578,0.0322266l0.2714844,0.0371094l0.3193359,0.0517578 l0.2490234,0.0458984l0.2841797,0.0581055l0.2929688,0.0649414l0.2597656,0.0649414l0.2939453,0.078125l0.2695313,0.0800781 l0.2890625,0.0878906l0.2890625,0.0991211l0.2773438,0.1020508l0.2460938,0.0961914l0.2832031,0.1147461l0.3242188,0.1459961 l0.25,0.1201172l0.0742188,0.0380859C139.65625,137.7539063,152.6826172,135.4267578,166.7568359,135.4267578"></path> </g> </svg>